<svg width="0" height="0" class="hidden">
  <symbol xmlns="http://www.w3.org/2000/svg" fill="none" viewBox="0 0 24 24" id="address">
    <path d="M12.625 19.6875C12.3438 20.125 11.6875 20.125 11.4062 19.6875C6.84375 13.125 6 12.4375 6 10C6 6.6875 8.6875 4 12 4C15.3438 4 18 6.6875 18 10C18 12.4375 17.1875 13.125 12.625 19.6875ZM12 12.5C13.4062 12.5 14.5 11.4062 14.5 10C14.5 8.625 13.4062 7.5 12 7.5C10.625 7.5 9.5 8.625 9.5 10C9.5 11.4062 10.625 12.5 12 12.5Z" fill="#5C8EE6"></path>
  </symbol>
  <symbol xmlns="http://www.w3.org/2000/svg" fill="none" viewBox="0 0 24 24" id="mail">
    <path d="M4.3125 9.96875C5.03125 10.5312 5.9375 11.2188 9.125 13.5312C9.75 14 10.9062 15.0312 12 15.0312C13.125 15.0312 14.25 14 14.9062 13.5312C18.0938 11.2188 19 10.5312 19.7188 9.96875C19.8438 9.875 20 9.96875 20 10.125V16.5C20 17.3438 19.3438 18 18.5 18H5.5C4.6875 18 4 17.3438 4 16.5V10.125C4 9.96875 4.1875 9.875 4.3125 9.96875ZM12 14C11.2812 14.0312 10.25 13.0938 9.71875 12.7188C5.5625 9.71875 5.25 9.4375 4.3125 8.6875C4.125 8.5625 4 8.34375 4 8.09375V7.5C4 6.6875 4.6875 6 5.5 6H18.5C19.3438 6 20 6.6875 20 7.5V8.09375C20 8.34375 19.9062 8.5625 19.7188 8.6875C18.7812 9.4375 18.4688 9.71875 14.3125 12.7188C13.7812 13.0938 12.75 14.0312 12 14Z" fill="#5C8EE6"></path>
  </symbol>
  <symbol xmlns="http://www.w3.org/2000/svg" fill="none" viewBox="0 0 24 24" id="vk">
    <path d="M21.4439 16.7569C20.6455 15.32 18.5889 13.5935 17.7398 12.8422C17.5074 12.6365 17.4826 12.2806 17.694 12.0531C19.3144 10.3119 20.6104 8.31123 21.0565 7.1023C21.2533 6.56826 20.8459 6.004 20.2719 6.004H18.6044C18.0548 6.004 17.7331 6.20127 17.5799 6.51538C16.2332 9.27491 15.078 10.4692 14.2694 11.1672C13.8167 11.5581 13.1107 11.2343 13.1107 10.6393C13.1107 9.49306 13.1107 8.01133 13.1107 6.96057C13.1107 6.45096 12.6939 6.03865 12.1799 6.03865L9.13379 6.004C8.75036 6.004 8.53132 6.43808 8.76147 6.74242L9.26441 7.4644C9.45368 7.71454 9.55587 8.01888 9.55587 8.33122L9.55321 11.5826C9.55321 12.1482 8.86766 12.4245 8.46068 12.0282C7.08381 10.6873 5.88909 7.94913 5.45901 6.63979C5.33461 6.2608 4.97962 6.00489 4.57709 6.004L2.93452 6C2.31828 6 1.86777 6.58425 2.03527 7.1725C3.5361 12.4405 6.61552 17.4522 12.1035 17.9956C12.6442 18.0489 13.1107 17.6135 13.1107 17.0745V15.3658C13.1107 14.8757 13.495 14.4545 13.9891 14.4421C14.0064 14.4416 14.0237 14.4416 14.041 14.4416C15.4926 14.4416 17.1182 16.5543 17.6869 17.5424C17.8504 17.8267 18.1561 18 18.4867 18H20.6962C21.3408 18 21.7545 17.3162 21.4439 16.7569Z" fill="#5C8EE6"></path>
  </symbol>
  <symbol xmlns="http://www.w3.org/2000/svg" fill="none" viewBox="0 0 24 24" id="instagram">
    <path d="M8.44444 4C5.99378 4 4 5.99378 4 8.44444V15.5556C4 18.0062 5.99378 20 8.44444 20H15.5556C18.0062 20 20 18.0062 20 15.5556V8.44444C20 5.99378 18.0062 4 15.5556 4H8.44444ZM8.44444 5.77778H15.5556C17.0258 5.77778 18.2222 6.97422 18.2222 8.44444V15.5556C18.2222 17.0258 17.0258 18.2222 15.5556 18.2222H8.44444C6.97422 18.2222 5.77778 17.0258 5.77778 15.5556V8.44444C5.77778 6.97422 6.97422 5.77778 8.44444 5.77778ZM16.4444 6.66667C16.2087 6.66667 15.9826 6.76032 15.8159 6.92702C15.6492 7.09372 15.5556 7.31981 15.5556 7.55556C15.5556 7.7913 15.6492 8.0174 15.8159 8.18409C15.9826 8.35079 16.2087 8.44444 16.4444 8.44444C16.6802 8.44444 16.9063 8.35079 17.073 8.18409C17.2397 8.0174 17.3333 7.7913 17.3333 7.55556C17.3333 7.31981 17.2397 7.09372 17.073 6.92702C16.9063 6.76032 16.6802 6.66667 16.4444 6.66667ZM12 7.55556C9.54933 7.55556 7.55556 9.54933 7.55556 12C7.55556 14.4507 9.54933 16.4444 12 16.4444C14.4507 16.4444 16.4444 14.4507 16.4444 12C16.4444 9.54933 14.4507 7.55556 12 7.55556ZM12 9.33333C13.4702 9.33333 14.6667 10.5298 14.6667 12C14.6667 13.4702 13.4702 14.6667 12 14.6667C10.5298 14.6667 9.33333 13.4702 9.33333 12C9.33333 10.5298 10.5298 9.33333 12 9.33333Z" fill="#5C8EE6"></path>
  </symbol>
  <symbol fill="none" xmlns="http://www.w3.org/2000/svg" viewBox="0 0 35 26" id="cargo">
    <path d="M1.75 16.5H20.125C21.0547 16.5 21.875 15.7344 21.875 14.75V2.5C21.875 1.57031 21.0547 0.75 20.125 0.75H1.75C0.765625 0.75 0 1.57031 0 2.5V14.75C0 15.7344 0.765625 16.5 1.75 16.5ZM1.75 2.5H20.125V14.75H1.75V2.5ZM33.9609 10.2656L30.7344 7.03906C30.0781 6.38281 29.2031 6.05469 28.2734 6.05469H24.5C24.0078 6.05469 23.625 6.4375 23.625 6.92969V18.3047H12.4688C11.8125 17.7578 10.9922 17.4297 10.0625 17.4297C8.80469 17.4297 7.71094 17.9766 7 18.9062C6.23438 17.9766 5.14062 17.375 3.9375 17.375C1.75 17.375 0 19.1797 0 21.3125C0 23.5 1.75 25.25 3.9375 25.25C5.14062 25.25 6.23438 24.7031 7 23.7734C7.71094 24.7031 8.80469 25.25 10.0625 25.25C12.1953 25.25 14 23.5 14 21.3125C14 20.875 13.8906 20.4375 13.7266 20H24.5547C24.3906 20.7656 24.4453 21.5312 24.7188 22.3516C25.1562 23.7188 26.3594 24.8125 27.7812 25.1406C30.625 25.8516 33.25 23.6641 33.25 20.875C33.25 20.6016 33.1953 20.3281 33.1406 20H34.125C34.5625 20 35 19.6172 35 19.125V12.7266C35 11.7969 34.6172 10.9219 33.9609 10.2656ZM3.9375 23.5C2.67969 23.5 1.75 22.5703 1.75 21.3125C1.75 20.1094 2.67969 19.125 3.9375 19.125C5.14062 19.125 6.125 20.1094 6.125 21.3125C6.125 22.5703 5.14062 23.5 3.9375 23.5ZM10.0625 23.5C8.80469 23.5 7.875 22.5703 7.875 21.3125C7.875 20.1094 8.80469 19.125 10.0625 19.125C11.2656 19.125 12.25 20.1094 12.25 21.3125C12.25 22.5703 11.2656 23.5 10.0625 23.5ZM25.375 7.75H28.2734C28.7656 7.75 29.2031 7.96875 29.5312 8.29688L32.4844 11.25H25.375V7.75ZM28.875 23.5C27.3984 23.5 26.25 22.3516 26.25 20.875C26.25 19.4531 27.3984 18.25 28.875 18.25C30.2969 18.25 31.5 19.4531 31.5 20.875C31.5 22.3516 30.2969 23.5 28.875 23.5ZM33.25 18.25H32.3203C31.5547 17.2109 30.2969 16.5 28.875 16.5C27.3984 16.5 26.1953 17.2109 25.375 18.25V13H33.25V18.25ZM5.6875 13H6.5625C6.78125 13 7 12.8359 7 12.5625V4.6875C7 4.46875 6.78125 4.25 6.5625 4.25H5.6875C5.41406 4.25 5.25 4.46875 5.25 4.6875V12.5625C5.25 12.8359 5.41406 13 5.6875 13ZM10.9375 13H11.8125C12.0312 13 12.25 12.8359 12.25 12.5625V4.6875C12.25 4.46875 12.0312 4.25 11.8125 4.25H10.9375C10.6641 4.25 10.5 4.46875 10.5 4.6875V12.5625C10.5 12.8359 10.6641 13 10.9375 13ZM16.1875 13H17.0625C17.2812 13 17.5 12.8359 17.5 12.5625V4.6875C17.5 4.46875 17.2812 4.25 17.0625 4.25H16.1875C15.9141 4.25 15.75 4.46875 15.75 4.6875V12.5625C15.75 12.8359 15.9141 13 16.1875 13Z" fill="#5C8EE6"></path>
  </symbol>
  <symbol xmlns="http://www.w3.org/2000/svg" viewBox="0 0 16 17" id="phone">
    <path d="M15.9688 12.0822L15.2188 15.2384C15.125 15.7072 14.75 16.0197 14.2812 16.0197C6.40625 15.9884 0 9.58218 0 1.70718C0 1.23843 0.28125 0.86343 0.75 0.76968L3.90625 0.0196803C4.34375 -0.0740697 4.8125 0.17593 5 0.58218L6.46875 3.98843C6.625 4.39468 6.53125 4.86343 6.1875 5.11343L4.5 6.48843C5.5625 8.64468 7.3125 10.3947 9.5 11.4572L10.875 9.76968C11.125 9.45718 11.5938 9.33218 12 9.48843L15.4062 10.9572C15.8125 11.1759 16.0625 11.6447 15.9688 12.0822Z"></path>
  </symbol>
  <symbol fill="none" xmlns="http://www.w3.org/2000/svg" viewBox="0 0 21 28" id="sandtimer">
    <path d="M20.125 1.75H20.3438C20.6719 1.75 21 1.47656 21 1.09375V0.65625C21 0.328125 20.6719 0 20.3438 0H0.65625C0.273438 0 0 0.328125 0 0.65625V1.09375C0 1.47656 0.273438 1.75 0.65625 1.75H0.875C0.875 6.78125 3.28125 12.3594 7.92969 14C3.22656 15.6953 0.875 21.2734 0.875 26.25H0.65625C0.273438 26.25 0 26.5781 0 26.9062V27.3438C0 27.7266 0.273438 28 0.65625 28H20.3438C20.6719 28 21 27.7266 21 27.3438V26.9062C21 26.5781 20.6719 26.25 20.3438 26.25H20.125C20.125 21.2734 17.6641 15.6953 13.0156 14C17.7188 12.3594 20.125 6.78125 20.125 1.75ZM2.625 1.75H18.375C18.375 7.82031 14.8203 12.6875 10.5 12.6875C6.125 12.6875 2.625 7.82031 2.625 1.75ZM18.375 26.25H2.625C2.625 20.2344 6.125 15.3125 10.5 15.3125C14.8203 15.3125 18.375 20.2344 18.375 26.25ZM14.7109 8.03906C15.0391 7.65625 14.7109 7 14.1641 7H6.78125C6.23438 7 5.90625 7.65625 6.23438 8.03906C6.34375 8.20312 6.45312 8.36719 6.61719 8.53125C6.72656 8.69531 6.89062 8.75 7.10938 8.75H13.8359C14.0547 8.75 14.2188 8.69531 14.3281 8.53125C14.4922 8.36719 14.6016 8.20312 14.7109 8.03906ZM5.35938 22.75C5.03125 22.75 4.8125 22.9688 4.70312 23.2422C4.70312 23.4062 4.64844 23.5703 4.59375 23.7344C4.53906 24.1172 4.8125 24.5 5.25 24.5H15.6953C16.1328 24.5 16.4062 24.1172 16.3516 23.7344C16.2969 23.5703 16.2422 23.4062 16.2422 23.2422C16.1328 22.9688 15.9141 22.75 15.5859 22.75H5.35938Z" fill="#5C8EE6"></path>
  </symbol>
  <symbol fill="none" xmlns="http://www.w3.org/2000/svg" viewBox="0 0 29 29" id="sertificate">
    <path d="M27.2216 5.35938L22.6825 0.820312C22.1903 0.328125 21.4794 0 20.8232 0H9.66691C8.19035 0.0546875 7.04191 1.20312 7.04191 2.67969V9.07812C6.71379 9.07812 6.38566 9.02344 5.67473 8.80469C5.62004 8.80469 5.51066 8.80469 5.40129 8.80469C5.12785 8.80469 4.85441 8.91406 4.69035 9.07812C3.70598 10.1172 3.76066 10.0625 2.39348 10.4453C2.01066 10.5547 1.73723 10.8281 1.62785 11.2109C1.29973 12.5781 1.29973 12.5234 0.31535 13.5078C0.0419129 13.7812 -0.0674621 14.2188 0.0419129 14.6016C0.424725 15.9141 0.424725 15.9141 0.0419129 17.2266C-0.0674621 17.6094 0.0419129 18.0469 0.31535 18.3203C1.29973 19.3047 1.29973 19.3047 1.62785 20.6172C1.73723 21 2.01066 21.2734 2.39348 21.3828C2.50285 21.4375 2.55754 21.4375 2.66691 21.4375V27.125C2.66691 27.4531 2.77629 27.7266 3.04973 27.8906C3.32316 28.0547 3.65129 28.0547 3.92473 27.9453L7.04191 26.3594L10.1044 27.9453C10.2685 28 10.3779 28 10.5419 28H25.4169C26.8388 28 28.0419 26.8516 28.0419 25.4297V7.21875C28.0419 6.5625 27.7138 5.85156 27.2216 5.35938ZM21.0419 1.80469C21.1513 1.85938 21.3153 1.91406 21.4247 2.02344L26.0185 6.61719C26.1278 6.72656 26.1825 6.89062 26.2372 7.05469H21.0419V1.80469ZM1.8466 17.3359C2.12004 16.1328 2.12004 15.6953 1.8466 14.4922C2.66691 13.6172 2.88566 13.2344 3.21379 12.0312C4.41691 11.7031 4.74504 11.4844 5.62004 10.6094C6.16691 10.7734 6.54973 10.8281 7.04191 10.8281C7.47941 10.8281 7.86223 10.7734 8.4091 10.6094C9.22941 11.4844 9.61223 11.7031 10.8154 12.0312C11.1435 13.2344 11.3075 13.5625 12.1825 14.4922C11.8544 15.6953 11.8544 16.1328 12.1825 17.3359C11.3622 18.2109 11.1435 18.5938 10.8154 19.7969C9.99504 20.0156 9.50285 20.1797 8.73723 20.8359C8.19035 20.6172 7.64348 20.5078 7.04191 20.5078C6.38566 20.5078 5.83879 20.6172 5.29191 20.8906C4.52629 20.2344 4.0341 20.0156 3.21379 19.7969C2.88566 18.5938 2.7216 18.2656 1.8466 17.3359ZM7.42473 24.6094C7.15129 24.5 6.87785 24.5 6.60441 24.6094L4.41691 25.7578V22.4219C4.41691 22.4766 4.41691 22.4766 4.41691 22.4766C4.63566 22.6953 4.9091 22.75 5.12785 22.75C5.3466 22.75 5.51066 22.6953 5.72941 22.6406C6.11223 22.3672 6.54973 22.2578 7.04191 22.2578C7.47941 22.2578 7.91691 22.3672 8.29973 22.5859C8.51848 22.75 8.68254 22.75 8.90129 22.75C9.17473 22.75 9.39348 22.6953 9.61223 22.4766C9.61223 22.4766 9.61223 22.4766 9.66691 22.4219V25.7578L7.42473 24.6094ZM26.2919 25.4297C26.2919 25.8672 25.8544 26.3047 25.4169 26.3047H11.4169V21.4375C11.4716 21.4375 11.5263 21.4375 11.6357 21.3828C12.0185 21.2734 12.2919 21 12.4013 20.6172C12.7294 19.25 12.7294 19.3047 13.7138 18.3203C13.9872 18.0469 14.0966 17.6094 13.9872 17.2266C13.6044 15.9141 13.6044 15.9141 13.9872 14.6016C14.0966 14.2188 13.9872 13.7812 13.7138 13.5078C12.7294 12.5234 12.7294 12.5234 12.4013 11.2109C12.2919 10.8281 12.0185 10.5547 11.6357 10.4453C10.3232 10.0625 10.3232 10.1172 9.33879 9.07812C9.17473 8.91406 8.95598 8.85938 8.79191 8.80469V2.67969C8.79191 2.1875 9.17473 1.75 9.66691 1.75H19.2919V7.49219C19.2919 8.20312 19.8388 8.75 20.6044 8.75H26.2919V25.4297Z" fill="#5C8EE6"></path>
  </symbol>
  <symbol fill="none" xmlns="http://www.w3.org/2000/svg" viewBox="0 0 32 25" id="velocity">
    <path d="M9.625 7.875C8.64062 7.875 7.875 8.69531 7.875 9.625C7.875 10.6094 8.64062 11.375 9.625 11.375C10.5547 11.375 11.375 10.6094 11.375 9.625C11.375 8.69531 10.5547 7.875 9.625 7.875ZM15.75 0C7.05469 0 0 7.05469 0 15.75C0 18.6484 0.765625 21.3828 2.13281 23.6797C2.40625 24.2266 3.00781 24.5547 3.60938 24.5547H27.8359C28.4375 24.5547 29.0391 24.2266 29.3672 23.6797C30.6797 21.3828 31.5 18.6484 31.5 15.75C31.5 7.05469 24.4453 0 15.75 0ZM15.75 21.875C14.4922 21.875 13.5625 20.9453 13.5625 19.6875C13.5625 18.4844 14.4922 17.5 15.75 17.5C16.9531 17.5 17.9375 18.4844 17.9375 19.6875C17.9375 20.9453 16.9531 21.875 15.75 21.875ZM27.3438 21.875H20.0156C20.3438 21.2188 20.5625 20.5078 20.5625 19.6875C20.5625 19.3594 20.5078 19.0312 20.3984 18.7031L25.4297 16.5703C26.0859 16.2422 26.4141 15.4766 26.1406 14.8203C25.8125 14.1641 25.0469 13.8359 24.3906 14.1094L19.1953 16.3516C18.3203 15.4766 17.0625 14.875 15.75 14.875C13.0703 14.875 10.9375 17.0625 10.9375 19.6875C10.9375 20.5078 11.1016 21.2188 11.4844 21.875H4.10156C3.11719 20.0156 2.625 17.9375 2.625 15.75C2.625 8.53125 8.47656 2.625 15.75 2.625C22.9688 2.625 28.875 8.53125 28.875 15.75C28.875 17.9375 28.3281 20.0156 27.3438 21.875ZM7 14C6.01562 14 5.25 14.8203 5.25 15.75C5.25 16.7344 6.01562 17.5 7 17.5C7.92969 17.5 8.75 16.7344 8.75 15.75C8.75 14.8203 7.92969 14 7 14ZM15.75 5.25C14.7656 5.25 14 6.07031 14 7C14 7.98438 14.7656 8.75 15.75 8.75C16.6797 8.75 17.5 7.98438 17.5 7C17.5 6.07031 16.6797 5.25 15.75 5.25ZM21.875 7.875C20.8906 7.875 20.125 8.69531 20.125 9.625C20.125 10.6094 20.8906 11.375 21.875 11.375C22.8047 11.375 23.625 10.6094 23.625 9.625C23.625 8.69531 22.8047 7.875 21.875 7.875Z" fill="#5C8EE6"></path>
  </symbol>
  <symbol fill="none" xmlns="http://www.w3.org/2000/svg" viewBox="0 0 25 28" id="worker">
    <path d="M17.1172 19.25C15.5312 19.25 14.8203 20.125 12.25 20.125C9.625 20.125 8.91406 19.25 7.32812 19.25C3.28125 19.25 0 22.5859 0 26.6328C0 27.3984 0.601562 28 1.36719 28H23.0781C23.8438 28 24.5 27.3984 24.5 26.6328C24.5 22.5859 21.1641 19.25 17.1172 19.25ZM1.75 26.25C1.91406 23.3516 4.375 21.0547 7.32812 21C8.42188 21 9.46094 21.875 12.25 21.875C15.0391 21.875 16.0234 21 17.1172 21C20.0703 21.0547 22.5312 23.3516 22.6953 26.25H1.75ZM4.8125 8.75H5.46875C5.30469 9.35156 5.25 9.89844 5.25 10.5C5.25 14.3828 8.36719 17.5 12.25 17.5C16.0781 17.5 19.25 14.3828 19.25 10.5C19.1953 9.89844 19.1406 9.35156 18.9766 8.75H19.6875C19.9062 8.75 20.125 8.58594 20.125 8.3125V7.4375C20.125 7.21875 19.9062 7 19.6875 7H19.25C19.25 4.21094 17.3359 1.85938 14.7109 1.14844C14.4922 0.492188 13.8359 0.0546875 13.125 0H11.375C10.6094 0.0546875 9.95312 0.492188 9.73438 1.14844C7.16406 1.85938 5.25 4.21094 5.25 7H4.8125C4.53906 7 4.375 7.21875 4.375 7.4375V8.3125C4.375 8.58594 4.53906 8.75 4.8125 8.75ZM14.875 3.00781C16.4062 3.71875 17.4453 5.25 17.5 7H14.875V3.00781ZM11.375 1.75H13.125V7H11.375V1.75ZM7 7C7 5.25 8.03906 3.71875 9.625 3.00781V7H7ZM7.32812 8.75H17.1719C17.3359 9.29688 17.4453 9.89844 17.5 10.5C17.5 13.3984 15.0938 15.75 12.25 15.75C9.35156 15.75 7 13.3984 7 10.5C7 9.89844 7.10938 9.29688 7.32812 8.75Z" fill="#5C8EE6"></path>
  </symbol>
  <symbol fill="none" xmlns="http://www.w3.org/2000/svg" viewBox="0 0 140 44" id="aliance_logo_light">
    <g clip-path="url(#clip0_191_1609)">
      <path fill-rule="evenodd" clip-rule="evenodd" d="M21.9928 4.89351C24.2857 4.89351 26.4733 5.34481 28.4715 6.16361V12.3539V21.8184C28.4715 25.3669 25.5949 28.2436 22.0465 28.2436C20.5375 28.2436 19.15 27.7235 18.0536 26.8527V32.5405C19.2966 33.0038 20.6421 33.2569 22.0465 33.2569C29.0248 33.2569 33.5146 27.7473 33.5146 21.0594V3.25613C30.1638 1.19127 26.2173 0 21.9928 0C9.84658 0 0 9.84658 0 21.9928C0 28.9293 3.21131 35.1156 8.22825 39.1466V32.1397C6.13243 29.3013 4.89351 25.7918 4.89351 21.9928C4.89351 12.5492 12.5492 4.89351 21.9928 4.89351Z" fill="white"></path>
      <path fill-rule="evenodd" clip-rule="evenodd" d="M22.0619 39.1065C19.7688 39.1065 17.5811 38.6552 15.583 37.8364V31.6461V22.1815C15.583 18.6331 18.4597 15.7563 22.0082 15.7563C23.5171 15.7563 24.9044 16.2765 26.0008 17.1473V11.4594C24.7578 10.9962 23.4125 10.7431 22.0082 10.7431C15.0299 10.7431 10.54 16.2527 10.54 22.9406V40.7438C13.8906 42.8087 17.8371 44 22.0619 44C34.2081 44 44.0546 34.1534 44.0546 22.0072C44.0546 15.0707 40.8433 8.88436 35.8264 4.85339V11.8603C37.9222 14.6987 39.1611 18.2082 39.1611 22.0072C39.1611 31.4508 31.5055 39.1065 22.0619 39.1065Z" fill="#5C8EE6"></path>
      <path d="M71.3035 22.5536C71.3035 22.6595 71.2612 22.7443 71.1976 22.8079C71.1339 22.8716 71.028 22.9138 70.9221 22.9138H68.676C68.5701 22.9138 68.4853 22.8716 68.4216 22.8079C68.3582 22.7443 68.2946 22.6595 68.2735 22.5536L67.2985 18.5275H62.4249L61.45 22.5536C61.4289 22.6595 61.3655 22.7443 61.3019 22.8079C61.2382 22.8716 61.1534 22.9138 61.0475 22.9138H58.8014C58.6955 22.9138 58.5896 22.8716 58.5259 22.8079C58.4622 22.7443 58.42 22.6595 58.42 22.5536C58.42 22.5324 58.42 22.5324 58.4411 22.5113C58.4411 22.4902 58.4411 22.4688 58.4411 22.4476L61.9165 9.16164C62.0435 8.67402 62.2342 8.27152 62.4672 7.99603C62.7004 7.72055 62.9759 7.48762 63.2514 7.33916C63.5269 7.19102 63.8023 7.10623 64.099 7.06367C64.3744 7.02144 64.6288 7 64.8617 7C65.095 7 65.349 7.02144 65.6456 7.06367C65.9211 7.10623 66.218 7.19102 66.4935 7.33916C66.769 7.48762 67.0231 7.72055 67.2563 7.99603C67.4892 8.27152 67.6799 8.67402 67.8073 9.16164L71.2824 22.4476C71.2824 22.4688 71.2823 22.4902 71.3035 22.5113C71.3035 22.5324 71.3035 22.5324 71.3035 22.5536ZM65.2009 9.81852C65.1795 9.69117 65.1372 9.60638 65.095 9.54304C65.0524 9.50048 64.9676 9.47936 64.8617 9.47936C64.7558 9.47936 64.671 9.50048 64.6288 9.54304C64.5862 9.60638 64.544 9.69117 64.5226 9.81852L62.997 16.1118H66.7265L65.2009 9.81852Z" fill="white"></path>
      <path d="M81.7927 22.3417C81.7927 22.4902 81.7712 22.5961 81.7079 22.6594C81.6442 22.7231 81.5172 22.7653 81.3687 22.7868C81.2206 22.829 80.9873 22.8716 80.7119 22.8927C80.4153 22.9349 80.0975 22.9775 79.7584 22.9986C79.4192 23.0197 79.0804 23.0408 78.7201 23.0623C78.3598 23.0834 78.0418 23.0834 77.7663 23.0834C77.0672 23.0834 76.4314 23.0197 75.8382 22.9138C75.2447 22.8079 74.7363 22.575 74.2912 22.2569C73.8462 21.9392 73.5073 21.5153 73.253 20.9432C72.9986 20.3711 72.8716 19.6505 72.8716 18.7393V7.59352C72.8716 7.48761 72.9138 7.38139 72.9986 7.29692C73.0834 7.21213 73.1893 7.16958 73.2955 7.16958H75.3932C75.4991 7.16958 75.605 7.21213 75.6898 7.29692C75.7746 7.38139 75.8171 7.48761 75.8171 7.59352V18.7393C75.8171 19.4387 75.9441 19.926 76.1771 20.1804C76.4103 20.4344 76.8554 20.5618 77.4697 20.5618H81.3687C81.4746 20.5618 81.5805 20.604 81.6653 20.6888C81.7501 20.7736 81.7927 20.8795 81.7927 20.9854V22.3417ZM86.7511 22.4902C86.7511 22.5961 86.7085 22.702 86.6237 22.7868C86.5393 22.8716 86.433 22.9138 86.3271 22.9138H84.2295C84.1236 22.9138 84.0177 22.8716 83.9329 22.7868C83.8481 22.702 83.8055 22.5961 83.8055 22.4902V7.57241C83.8055 7.46618 83.8481 7.36027 83.9329 7.27548C84.0177 7.21214 84.1236 7.16958 84.2295 7.16958H86.3271C86.433 7.16958 86.5393 7.21214 86.6237 7.27548C86.7085 7.36027 86.7511 7.46618 86.7511 7.57241V22.4902ZM101.626 22.5535C101.626 22.6594 101.584 22.7442 101.52 22.8079C101.457 22.8716 101.351 22.9138 101.245 22.9138H98.9988C98.8929 22.9138 98.8081 22.8716 98.7444 22.8079C98.6811 22.7442 98.6174 22.6594 98.5963 22.5535L97.6214 18.5275H92.7478L91.7732 22.5535C91.7517 22.6594 91.6884 22.7442 91.6247 22.8079C91.561 22.8716 91.4766 22.9138 91.3703 22.9138H89.1242C89.0183 22.9138 88.9124 22.8716 88.8487 22.8079C88.7854 22.7442 88.7428 22.6594 88.7428 22.5535C88.7428 22.5324 88.7428 22.5324 88.7639 22.5113C88.7639 22.4902 88.7639 22.4687 88.7639 22.4476L92.2393 9.16164C92.3664 8.67402 92.5571 8.27152 92.7903 7.99603C93.0232 7.72055 93.2987 7.48762 93.5742 7.33916C93.8497 7.19102 94.1252 7.10623 94.4218 7.06367C94.6973 7.02144 94.9516 7 95.1846 7C95.4178 7 95.6719 7.02144 95.9688 7.06367C96.2443 7.10623 96.5409 7.19102 96.8164 7.33916C97.0918 7.48762 97.3459 7.72055 97.5791 7.99603C97.8121 8.27152 98.0031 8.67402 98.1301 9.16164L101.605 22.4476C101.605 22.4687 101.605 22.4902 101.626 22.5113C101.626 22.5324 101.626 22.5324 101.626 22.5535ZM95.5237 9.81851C95.5026 9.69117 95.46 9.60638 95.4178 9.54303C95.3753 9.50047 95.2905 9.47936 95.1846 9.47936C95.0787 9.47936 94.9939 9.50047 94.9516 9.54303C94.9091 9.60638 94.8668 9.69117 94.8457 9.81851L93.3198 16.1118H97.0493L95.5237 9.81851ZM115.527 22.0662C115.527 22.2995 115.442 22.5113 115.294 22.6594C115.124 22.829 114.913 22.9138 114.679 22.9138H112.539C112.285 22.9138 112.052 22.8716 111.84 22.8079C111.607 22.7442 111.416 22.5324 111.247 22.151L106.542 11.8314C106.479 11.7255 106.415 11.6618 106.352 11.6618C106.288 11.6618 106.246 11.7255 106.246 11.8314V22.4902C106.246 22.5961 106.203 22.702 106.14 22.7868C106.055 22.8716 105.949 22.9138 105.843 22.9138H104.042C103.936 22.9138 103.83 22.8716 103.745 22.7868C103.661 22.702 103.618 22.5961 103.618 22.4902V8.01714C103.618 7.78422 103.703 7.57241 103.872 7.40283C104.021 7.25437 104.233 7.16958 104.466 7.16958H106.754C106.988 7.16958 107.157 7.21213 107.305 7.29692C107.433 7.38139 107.56 7.57241 107.687 7.84757L112.624 18.7393C112.666 18.8452 112.73 18.9089 112.794 18.9089C112.857 18.9089 112.899 18.8452 112.899 18.7182V7.57241C112.899 7.29692 113.027 7.16958 113.302 7.16958H115.124C115.4 7.16958 115.527 7.29692 115.527 7.57241V22.0662ZM128.072 22.2569C128.072 22.4054 128.029 22.5113 127.945 22.575C127.86 22.6383 127.754 22.702 127.605 22.7442C127.521 22.7653 127.372 22.8079 127.181 22.829C126.97 22.8716 126.715 22.9138 126.419 22.9564C126.122 22.9775 125.783 23.0197 125.423 23.0408C125.063 23.0623 124.66 23.0834 124.257 23.0834C123.622 23.0834 122.944 22.9986 122.244 22.8079C121.545 22.6172 120.888 22.278 120.316 21.7907C119.723 21.3034 119.256 20.6466 118.854 19.8201C118.472 18.9937 118.282 17.9128 118.282 16.5991V13.4843C118.282 12.1494 118.472 11.0686 118.854 10.221C119.256 9.39457 119.723 8.7377 120.316 8.2504C120.888 7.76311 121.545 7.44506 122.244 7.25436C122.944 7.08478 123.622 7 124.257 7C124.66 7 125.063 7.02144 125.423 7.04255C125.783 7.06367 126.122 7.10623 126.419 7.12734C126.715 7.16958 126.97 7.21213 127.181 7.25436C127.372 7.29692 127.521 7.31804 127.605 7.33916C127.754 7.38139 127.86 7.42394 127.945 7.48761C128.029 7.55096 128.072 7.67831 128.072 7.82645V9.24643C128.072 9.37345 128.05 9.47936 127.987 9.56415C127.923 9.64894 127.796 9.69117 127.648 9.69117H127.605C127.415 9.67005 127.203 9.64894 126.948 9.62782C126.673 9.60638 126.398 9.60638 126.101 9.58526C125.804 9.56415 125.507 9.56415 125.19 9.54303C124.872 9.52191 124.575 9.52192 124.3 9.52192C123.855 9.52192 123.431 9.58527 123.071 9.71262C122.689 9.86075 122.371 10.0726 122.096 10.3695C121.821 10.6872 121.609 11.0897 121.46 11.5984C121.312 12.1069 121.227 12.7426 121.227 13.4843V16.5991C121.227 17.3408 121.312 17.9554 121.46 18.4638C121.609 18.9725 121.821 19.3751 122.096 19.6931C122.371 20.0108 122.689 20.2226 123.071 20.35C123.431 20.4981 123.855 20.5618 124.3 20.5618C124.575 20.5618 124.872 20.5618 125.19 20.5407C125.507 20.5192 125.804 20.5192 126.101 20.4981C126.398 20.477 126.673 20.4559 126.948 20.4344C127.203 20.4133 127.415 20.4133 127.605 20.3922H127.648C127.796 20.3922 127.923 20.4344 127.987 20.5192C128.05 20.604 128.072 20.7099 128.072 20.8373V22.2569ZM140.002 22.3417C140.002 22.4902 139.98 22.5961 139.917 22.6594C139.853 22.7231 139.726 22.7653 139.578 22.7868C139.408 22.8079 139.218 22.8501 139.027 22.8716C138.815 22.9138 138.56 22.9563 138.264 22.9775C137.946 22.9986 137.586 23.0408 137.162 23.0623C136.717 23.0834 136.187 23.0834 135.552 23.0834C134.852 23.0834 134.217 23.0197 133.623 22.9138C133.03 22.8079 132.5 22.575 132.076 22.2569C131.631 21.9392 131.271 21.5153 131.017 20.9432C130.763 20.3711 130.635 19.6505 130.635 18.7393V11.3441C130.635 10.4328 130.763 9.71261 131.017 9.1402C131.271 8.56812 131.631 8.12305 132.076 7.80533C132.5 7.48761 133.03 7.27548 133.623 7.16958C134.217 7.06367 134.852 7 135.552 7C136.187 7 136.717 7 137.162 7.02144C137.586 7.04255 137.946 7.08478 138.264 7.10622C138.56 7.12734 138.815 7.16958 139.027 7.19102C139.218 7.23325 139.408 7.27548 139.578 7.29692C139.726 7.31804 139.853 7.36027 139.917 7.42394C139.98 7.48761 140.002 7.59352 140.002 7.74166V9.09797C140.002 9.20387 139.959 9.30978 139.874 9.39457C139.79 9.47936 139.684 9.52192 139.578 9.52192H135.255C134.64 9.52192 134.196 9.64894 133.962 9.90331C133.708 10.1574 133.581 10.6447 133.581 11.3441V13.6327H139.324C139.429 13.6327 139.535 13.675 139.62 13.7598C139.705 13.8446 139.747 13.9505 139.747 14.0564V15.5819C139.747 15.6882 139.705 15.7941 139.62 15.8789C139.535 15.9636 139.429 16.0059 139.324 16.0059H133.581V18.7393C133.581 19.4387 133.708 19.926 133.962 20.1804C134.196 20.4344 134.64 20.5618 135.255 20.5618H139.578C139.684 20.5618 139.79 20.604 139.874 20.6888C139.959 20.7736 140.002 20.8795 140.002 20.9854V22.3417Z" fill="white"></path>
      <path d="M65.8759 29.9868C65.8759 30.5816 65.7677 31.0816 65.565 31.4867C65.3489 31.8921 65.0653 32.2167 64.7002 32.4597C64.349 32.7167 63.9303 32.8921 63.4706 32.9866C62.9979 33.0948 62.4979 33.149 61.9707 33.149C61.7953 33.149 61.5925 33.1354 61.3492 33.1218C61.1195 33.1084 60.9168 33.1084 60.768 33.0948V36.6215C60.768 36.6891 60.7411 36.7567 60.7005 36.8109C60.6465 36.8648 60.579 36.8918 60.5114 36.8918H59.1603C59.0927 36.8918 59.0251 36.8648 58.9709 36.8109C58.917 36.7567 58.89 36.6891 58.89 36.6215V27.3249C58.89 27.1897 58.9306 27.0952 59.0115 27.0276C59.0791 26.9737 59.1873 26.9331 59.3224 26.9198C59.6736 26.8655 60.079 26.8249 60.5384 26.7846C60.998 26.7573 61.4844 26.744 61.9843 26.744C62.4979 26.744 62.9979 26.7979 63.4706 26.8925C63.9303 26.987 64.349 27.1628 64.7002 27.4061C65.0653 27.6494 65.3489 27.9736 65.565 28.3654C65.7677 28.7709 65.8759 29.2708 65.8759 29.8653V29.9868ZM63.9978 29.8517C63.9978 29.2845 63.8354 28.879 63.4979 28.6494C63.16 28.406 62.6464 28.2845 61.9707 28.2845C61.9031 28.2845 61.8086 28.2845 61.7004 28.2845C61.5789 28.2978 61.4707 28.2978 61.3492 28.2978C61.2277 28.3115 61.1195 28.3115 61.025 28.3115C60.9168 28.3248 60.8356 28.3248 60.768 28.3385V31.5679C60.8223 31.5679 60.9032 31.5679 61.025 31.5679C61.1332 31.5816 61.2547 31.5816 61.3762 31.5816C61.498 31.5949 61.6059 31.5949 61.7277 31.5949C61.8355 31.6085 61.9168 31.6085 61.9707 31.6085C62.7003 31.6085 63.2276 31.4734 63.5382 31.2031C63.8491 30.9328 63.9978 30.5274 63.9978 29.9735V29.8517ZM74.6456 36.7297C74.6456 36.8379 74.5917 36.8918 74.4835 36.8918H72.8348C72.7672 36.8918 72.7133 36.8648 72.6727 36.8109C72.6324 36.7567 72.6051 36.6891 72.5648 36.6215L70.6189 33.0272H70.4298C70.2541 33.0272 70.0377 33.0139 69.808 33.0003C69.5784 32.9866 69.3756 32.9866 69.2272 32.9733V36.6215C69.2272 36.6891 69.1999 36.7567 69.1596 36.8109C69.1054 36.8648 69.0378 36.8918 68.9702 36.8918H67.6191C67.5515 36.8918 67.484 36.8648 67.43 36.8109C67.3758 36.7567 67.3488 36.6891 67.3488 36.6215V27.3249C67.3488 27.1897 67.3894 27.0952 67.4703 27.0276C67.5379 26.9737 67.6461 26.9331 67.7812 26.9198C68.1324 26.8655 68.5378 26.8249 68.9975 26.7846C69.4569 26.7573 69.9432 26.744 70.4431 26.744C70.9568 26.744 71.4567 26.7979 71.9297 26.8925C72.3891 27.0007 72.8078 27.1764 73.1593 27.4061C73.5242 27.6358 73.8078 27.9467 74.0241 28.3385C74.2268 28.7302 74.3347 29.2169 74.3347 29.7977V29.9192C74.3347 30.6356 74.1726 31.2301 73.8347 31.6761C73.5105 32.1218 73.0645 32.4597 72.4973 32.676L74.6186 36.6215C74.6319 36.6488 74.6456 36.6891 74.6456 36.7297ZM72.4567 29.7977C72.4567 29.2845 72.2945 28.9196 71.9567 28.6896C71.6188 28.46 71.1052 28.3521 70.4298 28.3521C70.3623 28.3521 70.2674 28.3521 70.1595 28.3521C70.0377 28.3654 69.9299 28.3654 69.808 28.3654C69.6865 28.3791 69.5784 28.3791 69.4838 28.3791C69.3756 28.3924 69.2948 28.3924 69.2272 28.406V31.4464C69.2811 31.4464 69.3623 31.4464 69.4838 31.4464C69.592 31.4597 69.7135 31.4598 69.835 31.4598C69.9568 31.4734 70.0647 31.4734 70.1865 31.4734C70.2947 31.4867 70.3756 31.4867 70.4298 31.4867C71.1322 31.4867 71.6458 31.3789 71.97 31.1492C72.2945 30.9195 72.4567 30.5141 72.4567 29.9192V29.7977Z" fill="#5C8EE6"></path>
      <path d="M83.3208 32.7842C83.3208 33.5272 83.2259 34.176 83.0368 34.7029C82.8341 35.2298 82.5775 35.6622 82.226 36.0001C81.8884 36.3379 81.483 36.5946 81.01 36.7567C80.5507 36.9188 80.037 37 79.4831 37C78.9156 37 78.402 36.9188 77.9426 36.7567C77.4696 36.5946 77.0642 36.3379 76.7267 36.0001C76.3888 35.6622 76.1185 35.2298 75.9291 34.7029C75.7264 34.176 75.6319 33.5272 75.6319 32.7842V30.9598C75.6319 30.2168 75.7264 29.5817 75.9291 29.0411C76.1185 28.5142 76.3888 28.0682 76.7267 27.7303C77.0642 27.3925 77.4696 27.1495 77.9426 26.987C78.402 26.8249 78.9156 26.744 79.4831 26.744C80.037 26.744 80.5507 26.8249 81.01 26.987C81.483 27.1495 81.8884 27.3925 82.226 27.7303C82.5775 28.0682 82.8341 28.5142 83.0368 29.0411C83.2259 29.5817 83.3208 30.2168 83.3208 30.9598V32.7842ZM81.4424 30.9598C81.4424 30.0544 81.2803 29.406 80.9561 28.9869C80.6452 28.5818 80.1452 28.3791 79.4831 28.3791C78.8074 28.3791 78.3075 28.5818 77.9966 28.9869C77.6724 29.406 77.5102 30.0544 77.5102 30.9598V32.7842C77.5102 33.6893 77.6724 34.3381 77.9966 34.7435C78.3075 35.1623 78.8074 35.365 79.4831 35.365C80.1452 35.365 80.6452 35.1623 80.9561 34.7435C81.2803 34.3381 81.4424 33.6893 81.4424 32.7842V30.9598ZM92.3604 32.8651C92.3604 34.2029 91.9956 35.2298 91.2523 35.9325C90.5227 36.6488 89.4688 37 88.1177 37C87.8607 37 87.6177 37 87.3475 36.9864C87.0772 36.9731 86.8205 36.9594 86.5772 36.9461C86.3202 36.9324 86.1042 36.9055 85.9015 36.8918C85.6988 36.8785 85.5367 36.8512 85.4421 36.8379C85.3206 36.8243 85.2394 36.784 85.1855 36.7164C85.1179 36.6488 85.0906 36.554 85.0906 36.4188V27.3249C85.0906 27.1897 85.1179 27.0952 85.1855 27.0276C85.2394 26.9601 85.3206 26.9198 85.4421 26.9061C85.5367 26.8925 85.6988 26.8655 85.9015 26.8522C86.1042 26.8386 86.3202 26.8116 86.5772 26.798C86.8205 26.7846 87.0772 26.771 87.3475 26.7573C87.6177 26.744 87.8607 26.744 88.1177 26.744C89.4688 26.744 90.5227 27.0952 91.2523 27.7979C91.9956 28.5142 92.3604 29.5411 92.3604 30.8789V32.8651ZM90.4824 30.8789C90.4824 30.3789 90.4281 29.9599 90.3066 29.6356C90.1851 29.2978 90.0094 29.0411 89.8067 28.8384C89.5903 28.6494 89.3337 28.5142 89.0501 28.433C88.7528 28.3654 88.4419 28.3248 88.1041 28.3248C87.8474 28.3248 87.6311 28.3248 87.4553 28.3385C87.2799 28.3521 87.1178 28.3521 86.969 28.3654V35.3919C87.1178 35.4056 87.2799 35.4056 87.4553 35.4189C87.6311 35.4325 87.8474 35.4325 88.1041 35.4325C88.4419 35.4325 88.7528 35.3919 89.0501 35.3111C89.3337 35.2435 89.5903 35.1083 89.8067 34.9056C90.0094 34.7165 90.1851 34.4596 90.3066 34.1217C90.4281 33.7975 90.4824 33.3787 90.4824 32.8788V30.8789ZM101.468 33.176C101.468 33.892 101.373 34.5002 101.198 34.9865C101.009 35.4732 100.752 35.8649 100.427 36.1622C100.09 36.4594 99.6978 36.6758 99.2518 36.7973C98.7924 36.9325 98.2925 37 97.7519 37C97.2116 37 96.7117 36.9325 96.2656 36.7973C95.8063 36.6758 95.4145 36.4594 95.0899 36.1622C94.7521 35.8649 94.4954 35.4732 94.3197 34.9865C94.1306 34.5002 94.0361 33.892 94.0361 33.176V27.1088C94.0361 27.0413 94.063 26.9737 94.1173 26.9198C94.1712 26.8792 94.2388 26.8522 94.3064 26.8522H95.6442C95.7117 26.8522 95.7793 26.8792 95.8332 26.9198C95.8872 26.9737 95.9144 27.0413 95.9144 27.1088V33.1894C95.9144 33.5678 95.9414 33.9057 95.9953 34.1893C96.0496 34.4732 96.1441 34.7165 96.2926 34.9056C96.4277 35.0947 96.6168 35.2298 96.8468 35.3244C97.0765 35.4189 97.3871 35.4595 97.7519 35.4595C98.117 35.4595 98.4143 35.4189 98.6573 35.3244C98.887 35.2298 99.0764 35.0947 99.2248 34.9056C99.36 34.7165 99.4545 34.4732 99.5087 34.1893C99.5627 33.9057 99.5896 33.5678 99.5896 33.1894V27.1088C99.5896 27.0413 99.6169 26.9737 99.6709 26.9198C99.7248 26.8792 99.7924 26.8522 99.8599 26.8522H101.198C101.265 26.8522 101.333 26.8792 101.387 26.9198C101.441 26.9737 101.468 27.0413 101.468 27.1088V33.176ZM109.4 36.4731C109.4 36.5676 109.373 36.6352 109.319 36.6758C109.265 36.7164 109.197 36.7567 109.103 36.784C109.048 36.7973 108.954 36.8243 108.832 36.8379C108.697 36.8649 108.535 36.8918 108.346 36.9188C108.157 36.9325 107.941 36.9594 107.711 36.9731C107.481 36.9864 107.224 37 106.968 37C106.562 37 106.13 36.9461 105.684 36.8243C105.238 36.7028 104.819 36.4864 104.454 36.1758C104.076 35.8649 103.779 35.4462 103.522 34.9189C103.279 34.392 103.157 33.703 103.157 32.8651V30.8789C103.157 30.0274 103.279 29.3384 103.522 28.7978C103.779 28.2709 104.076 27.8521 104.454 27.5412C104.819 27.2303 105.238 27.0276 105.684 26.9061C106.13 26.798 106.562 26.744 106.968 26.744C107.224 26.744 107.481 26.7573 107.711 26.771C107.941 26.7846 108.157 26.8116 108.346 26.8249C108.535 26.8522 108.697 26.8792 108.832 26.9061C108.954 26.9331 109.048 26.9467 109.103 26.9601C109.197 26.987 109.265 27.0143 109.319 27.0546C109.373 27.0952 109.4 27.1764 109.4 27.271V28.1764C109.4 28.2572 109.386 28.3248 109.346 28.3791C109.305 28.433 109.224 28.46 109.13 28.46H109.103C108.981 28.4466 108.846 28.433 108.684 28.4194C108.508 28.406 108.332 28.406 108.143 28.3924C107.954 28.3791 107.765 28.3791 107.562 28.3654C107.359 28.3521 107.17 28.3521 106.995 28.3521C106.711 28.3521 106.441 28.3924 106.211 28.4736C105.968 28.5681 105.765 28.7033 105.589 28.8924C105.413 29.0951 105.278 29.352 105.184 29.6763C105.089 30.0005 105.035 30.4059 105.035 30.8789V32.8651C105.035 33.3381 105.089 33.7299 105.184 34.0541C105.278 34.3787 105.413 34.6353 105.589 34.838C105.765 35.0408 105.968 35.1759 106.211 35.2568C106.441 35.3513 106.711 35.3919 106.995 35.3919C107.17 35.3919 107.359 35.3919 107.562 35.3786C107.765 35.365 107.954 35.365 108.143 35.3513C108.332 35.338 108.508 35.3244 108.684 35.3111C108.846 35.2974 108.981 35.2974 109.103 35.2838H109.13C109.224 35.2838 109.305 35.311 109.346 35.365C109.386 35.4189 109.4 35.4865 109.4 35.5677V36.4731ZM117.508 28.1764C117.508 28.2439 117.48 28.3115 117.426 28.3521C117.372 28.3924 117.305 28.4194 117.237 28.4194H114.873V36.6216C114.873 36.6891 114.845 36.7567 114.791 36.811C114.737 36.8649 114.67 36.8918 114.602 36.8918H113.264C113.197 36.8918 113.129 36.8649 113.075 36.811C113.021 36.7567 112.994 36.6891 112.994 36.6216V28.4194H110.63C110.562 28.4194 110.494 28.3924 110.44 28.3521C110.386 28.3115 110.359 28.2439 110.359 28.1764V27.1088C110.359 27.0413 110.386 26.9737 110.44 26.9198C110.494 26.8792 110.562 26.8522 110.63 26.8522H117.237C117.305 26.8522 117.372 26.8792 117.426 26.9198C117.48 26.9737 117.508 27.0413 117.508 27.1088V28.1764ZM120.737 36.6216C120.737 36.6891 120.71 36.7567 120.656 36.811C120.602 36.8649 120.534 36.8918 120.467 36.8918H119.129C119.061 36.8918 118.994 36.8649 118.94 36.811C118.886 36.7567 118.859 36.6891 118.859 36.6216V27.1088C118.859 27.0413 118.886 26.9737 118.94 26.9198C118.994 26.8792 119.061 26.8522 119.129 26.8522H120.467C120.534 26.8522 120.602 26.8792 120.656 26.9198C120.71 26.9737 120.737 27.0413 120.737 27.1088V36.6216ZM130.182 32.7842C130.182 33.5272 130.088 34.176 129.898 34.7029C129.696 35.2298 129.439 35.6622 129.088 36.0001C128.75 36.3379 128.344 36.5946 127.871 36.7567C127.412 36.9188 126.899 37 126.344 37C125.777 37 125.264 36.9188 124.804 36.7567C124.331 36.5946 123.926 36.3379 123.588 36.0001C123.25 35.6622 122.98 35.2298 122.791 34.7029C122.588 34.176 122.494 33.5272 122.494 32.7842V30.9598C122.494 30.2168 122.588 29.5817 122.791 29.0411C122.98 28.5142 123.25 28.0682 123.588 27.7303C123.926 27.3925 124.331 27.1495 124.804 26.987C125.264 26.8249 125.777 26.744 126.344 26.744C126.899 26.744 127.412 26.8249 127.871 26.987C128.344 27.1495 128.75 27.3925 129.088 27.7303C129.439 28.0682 129.696 28.5142 129.898 29.0411C130.088 29.5817 130.182 30.2168 130.182 30.9598V32.7842ZM128.304 30.9598C128.304 30.0544 128.142 29.406 127.817 28.9869C127.507 28.5818 127.007 28.3791 126.344 28.3791C125.669 28.3791 125.169 28.5818 124.858 28.9869C124.534 29.406 124.372 30.0544 124.372 30.9598V32.7842C124.372 33.6893 124.534 34.3381 124.858 34.7435C125.169 35.1623 125.669 35.365 126.344 35.365C127.007 35.365 127.507 35.1623 127.817 34.7435C128.142 34.3381 128.304 33.6893 128.304 32.7842V30.9598ZM139.546 36.3516C139.546 36.5001 139.492 36.6352 139.398 36.7297C139.29 36.8379 139.155 36.8918 139.006 36.8918H137.641C137.479 36.8918 137.33 36.8649 137.195 36.8243C137.046 36.784 136.925 36.6488 136.817 36.4055L133.817 29.8247C133.776 29.7571 133.736 29.7169 133.696 29.7169C133.655 29.7169 133.628 29.7571 133.628 29.8247V36.6216C133.628 36.6891 133.601 36.7567 133.56 36.811C133.506 36.8649 133.439 36.8918 133.371 36.8918H132.223C132.155 36.8918 132.087 36.8649 132.033 36.811C131.979 36.7567 131.952 36.6891 131.952 36.6216V27.3925C131.952 27.244 132.006 27.1088 132.114 27.0007C132.209 26.9061 132.344 26.8522 132.493 26.8522H133.952C134.101 26.8522 134.209 26.8792 134.303 26.9331C134.385 26.987 134.465 27.1088 134.547 27.2846L137.695 34.2299C137.722 34.2975 137.763 34.3381 137.803 34.3381C137.844 34.3381 137.871 34.2975 137.871 34.2166V27.1088C137.871 26.9331 137.952 26.8522 138.128 26.8522H139.29C139.465 26.8522 139.546 26.9331 139.546 27.1088V36.3516Z" fill="#5C8EE6"></path>
    </g>
    <defs>
      <clipPath id="clip0_191_1609">
        <rect width="140" height="44" fill="white"></rect>
      </clipPath>
    </defs>
  </symbol>
  <symbol fill="none" xmlns="http://www.w3.org/2000/svg" viewBox="0 0 140 44" id="aliance_logo_main">
    <g clip-path="url(#clip0_191_1668)">
      <path fill-rule="evenodd" clip-rule="evenodd" d="M21.9928 4.89351C24.2857 4.89351 26.4733 5.34481 28.4715 6.16361V12.3539V21.8184C28.4715 25.3669 25.5949 28.2436 22.0465 28.2436C20.5375 28.2436 19.15 27.7235 18.0536 26.8527V32.5405C19.2966 33.0038 20.6421 33.2569 22.0465 33.2569C29.0248 33.2569 33.5146 27.7473 33.5146 21.0594V3.25613C30.1638 1.19127 26.2173 0 21.9928 0C9.84658 0 0 9.84658 0 21.9928C0 28.9293 3.21131 35.1156 8.22825 39.1466V32.1397C6.13243 29.3013 4.89351 25.7918 4.89351 21.9928C4.89351 12.5492 12.5492 4.89351 21.9928 4.89351Z" fill="#292D33"></path>
      <path fill-rule="evenodd" clip-rule="evenodd" d="M22.0619 39.1065C19.7688 39.1065 17.5811 38.6552 15.583 37.8364V31.6461V22.1815C15.583 18.6331 18.4597 15.7563 22.0082 15.7563C23.5171 15.7563 24.9044 16.2765 26.0008 17.1473V11.4594C24.7578 10.9962 23.4125 10.7431 22.0082 10.7431C15.0299 10.7431 10.54 16.2527 10.54 22.9406V40.7438C13.8906 42.8087 17.8371 44 22.0619 44C34.2081 44 44.0546 34.1534 44.0546 22.0072C44.0546 15.0707 40.8433 8.88436 35.8264 4.85339V11.8603C37.9222 14.6987 39.1611 18.2082 39.1611 22.0072C39.1611 31.4508 31.5055 39.1065 22.0619 39.1065Z" fill="#5C8EE6"></path>
      <path d="M71.3035 22.5536C71.3035 22.6595 71.2612 22.7443 71.1976 22.8079C71.1339 22.8716 71.028 22.9138 70.9221 22.9138H68.676C68.5701 22.9138 68.4853 22.8716 68.4216 22.8079C68.3582 22.7443 68.2946 22.6595 68.2735 22.5536L67.2985 18.5275H62.4249L61.45 22.5536C61.4289 22.6595 61.3655 22.7443 61.3019 22.8079C61.2382 22.8716 61.1534 22.9138 61.0475 22.9138H58.8014C58.6955 22.9138 58.5896 22.8716 58.5259 22.8079C58.4622 22.7443 58.42 22.6595 58.42 22.5536C58.42 22.5324 58.42 22.5324 58.4411 22.5113C58.4411 22.4902 58.4411 22.4688 58.4411 22.4476L61.9165 9.16164C62.0435 8.67402 62.2342 8.27152 62.4672 7.99603C62.7004 7.72055 62.9759 7.48762 63.2514 7.33916C63.5269 7.19102 63.8023 7.10623 64.099 7.06367C64.3744 7.02144 64.6288 7 64.8617 7C65.095 7 65.349 7.02144 65.6456 7.06367C65.9211 7.10623 66.218 7.19102 66.4935 7.33916C66.769 7.48762 67.0231 7.72055 67.2563 7.99603C67.4892 8.27152 67.6799 8.67402 67.8073 9.16164L71.2824 22.4476C71.2824 22.4688 71.2823 22.4902 71.3035 22.5113C71.3035 22.5324 71.3035 22.5324 71.3035 22.5536ZM65.2009 9.81852C65.1795 9.69117 65.1372 9.60638 65.095 9.54304C65.0524 9.50048 64.9676 9.47936 64.8617 9.47936C64.7558 9.47936 64.671 9.50048 64.6288 9.54304C64.5862 9.60638 64.544 9.69117 64.5226 9.81852L62.997 16.1118H66.7265L65.2009 9.81852Z" fill="#292D33"></path>
      <path d="M81.7927 22.3417C81.7927 22.4902 81.7712 22.5961 81.7079 22.6594C81.6442 22.7231 81.5172 22.7653 81.3687 22.7868C81.2206 22.829 80.9873 22.8716 80.7119 22.8927C80.4153 22.9349 80.0975 22.9775 79.7584 22.9986C79.4192 23.0197 79.0804 23.0408 78.7201 23.0623C78.3598 23.0834 78.0418 23.0834 77.7663 23.0834C77.0672 23.0834 76.4314 23.0197 75.8382 22.9138C75.2447 22.8079 74.7363 22.575 74.2912 22.2569C73.8462 21.9392 73.5073 21.5153 73.253 20.9432C72.9986 20.3711 72.8716 19.6505 72.8716 18.7393V7.59352C72.8716 7.48761 72.9138 7.38139 72.9986 7.29692C73.0834 7.21213 73.1893 7.16958 73.2955 7.16958H75.3932C75.4991 7.16958 75.605 7.21213 75.6898 7.29692C75.7746 7.38139 75.8171 7.48761 75.8171 7.59352V18.7393C75.8171 19.4387 75.9441 19.926 76.1771 20.1804C76.4103 20.4344 76.8554 20.5618 77.4697 20.5618H81.3687C81.4746 20.5618 81.5805 20.604 81.6653 20.6888C81.7501 20.7736 81.7927 20.8795 81.7927 20.9854V22.3417ZM86.7511 22.4902C86.7511 22.5961 86.7085 22.702 86.6237 22.7868C86.5393 22.8716 86.433 22.9138 86.3271 22.9138H84.2295C84.1236 22.9138 84.0177 22.8716 83.9329 22.7868C83.8481 22.702 83.8055 22.5961 83.8055 22.4902V7.57241C83.8055 7.46618 83.8481 7.36027 83.9329 7.27548C84.0177 7.21214 84.1236 7.16958 84.2295 7.16958H86.3271C86.433 7.16958 86.5393 7.21214 86.6237 7.27548C86.7085 7.36027 86.7511 7.46618 86.7511 7.57241V22.4902ZM101.626 22.5535C101.626 22.6594 101.584 22.7442 101.52 22.8079C101.457 22.8716 101.351 22.9138 101.245 22.9138H98.9988C98.8929 22.9138 98.8081 22.8716 98.7444 22.8079C98.6811 22.7442 98.6174 22.6594 98.5963 22.5535L97.6214 18.5275H92.7478L91.7732 22.5535C91.7517 22.6594 91.6884 22.7442 91.6247 22.8079C91.561 22.8716 91.4766 22.9138 91.3703 22.9138H89.1242C89.0183 22.9138 88.9124 22.8716 88.8487 22.8079C88.7854 22.7442 88.7428 22.6594 88.7428 22.5535C88.7428 22.5324 88.7428 22.5324 88.7639 22.5113C88.7639 22.4902 88.7639 22.4687 88.7639 22.4476L92.2393 9.16164C92.3664 8.67402 92.5571 8.27152 92.7903 7.99603C93.0232 7.72055 93.2987 7.48762 93.5742 7.33916C93.8497 7.19102 94.1252 7.10623 94.4218 7.06367C94.6973 7.02144 94.9516 7 95.1846 7C95.4178 7 95.6719 7.02144 95.9688 7.06367C96.2443 7.10623 96.5409 7.19102 96.8164 7.33916C97.0918 7.48762 97.3459 7.72055 97.5791 7.99603C97.8121 8.27152 98.0031 8.67402 98.1301 9.16164L101.605 22.4476C101.605 22.4687 101.605 22.4902 101.626 22.5113C101.626 22.5324 101.626 22.5324 101.626 22.5535ZM95.5237 9.81851C95.5026 9.69117 95.46 9.60638 95.4178 9.54303C95.3753 9.50047 95.2905 9.47936 95.1846 9.47936C95.0787 9.47936 94.9939 9.50047 94.9516 9.54303C94.9091 9.60638 94.8668 9.69117 94.8457 9.81851L93.3198 16.1118H97.0493L95.5237 9.81851ZM115.527 22.0662C115.527 22.2995 115.442 22.5113 115.294 22.6594C115.124 22.829 114.913 22.9138 114.679 22.9138H112.539C112.285 22.9138 112.052 22.8716 111.84 22.8079C111.607 22.7442 111.416 22.5324 111.247 22.151L106.542 11.8314C106.479 11.7255 106.415 11.6618 106.352 11.6618C106.288 11.6618 106.246 11.7255 106.246 11.8314V22.4902C106.246 22.5961 106.203 22.702 106.14 22.7868C106.055 22.8716 105.949 22.9138 105.843 22.9138H104.042C103.936 22.9138 103.83 22.8716 103.745 22.7868C103.661 22.702 103.618 22.5961 103.618 22.4902V8.01714C103.618 7.78422 103.703 7.57241 103.872 7.40283C104.021 7.25437 104.233 7.16958 104.466 7.16958H106.754C106.988 7.16958 107.157 7.21213 107.305 7.29692C107.433 7.38139 107.56 7.57241 107.687 7.84757L112.624 18.7393C112.666 18.8452 112.73 18.9089 112.794 18.9089C112.857 18.9089 112.899 18.8452 112.899 18.7182V7.57241C112.899 7.29692 113.027 7.16958 113.302 7.16958H115.124C115.4 7.16958 115.527 7.29692 115.527 7.57241V22.0662ZM128.072 22.2569C128.072 22.4054 128.029 22.5113 127.945 22.575C127.86 22.6383 127.754 22.702 127.605 22.7442C127.521 22.7653 127.372 22.8079 127.181 22.829C126.97 22.8716 126.715 22.9138 126.419 22.9564C126.122 22.9775 125.783 23.0197 125.423 23.0408C125.063 23.0623 124.66 23.0834 124.257 23.0834C123.622 23.0834 122.944 22.9986 122.244 22.8079C121.545 22.6172 120.888 22.278 120.316 21.7907C119.723 21.3034 119.256 20.6466 118.854 19.8201C118.472 18.9937 118.282 17.9128 118.282 16.5991V13.4843C118.282 12.1494 118.472 11.0686 118.854 10.221C119.256 9.39457 119.723 8.7377 120.316 8.2504C120.888 7.76311 121.545 7.44506 122.244 7.25436C122.944 7.08478 123.622 7 124.257 7C124.66 7 125.063 7.02144 125.423 7.04255C125.783 7.06367 126.122 7.10623 126.419 7.12734C126.715 7.16958 126.97 7.21213 127.181 7.25436C127.372 7.29692 127.521 7.31804 127.605 7.33916C127.754 7.38139 127.86 7.42394 127.945 7.48761C128.029 7.55096 128.072 7.67831 128.072 7.82645V9.24643C128.072 9.37345 128.05 9.47936 127.987 9.56415C127.923 9.64894 127.796 9.69117 127.648 9.69117H127.605C127.415 9.67005 127.203 9.64894 126.948 9.62782C126.673 9.60638 126.398 9.60638 126.101 9.58526C125.804 9.56415 125.507 9.56415 125.19 9.54303C124.872 9.52191 124.575 9.52192 124.3 9.52192C123.855 9.52192 123.431 9.58527 123.071 9.71262C122.689 9.86075 122.371 10.0726 122.096 10.3695C121.821 10.6872 121.609 11.0897 121.46 11.5984C121.312 12.1069 121.227 12.7426 121.227 13.4843V16.5991C121.227 17.3408 121.312 17.9554 121.46 18.4638C121.609 18.9725 121.821 19.3751 122.096 19.6931C122.371 20.0108 122.689 20.2226 123.071 20.35C123.431 20.4981 123.855 20.5618 124.3 20.5618C124.575 20.5618 124.872 20.5618 125.19 20.5407C125.507 20.5192 125.804 20.5192 126.101 20.4981C126.398 20.477 126.673 20.4559 126.948 20.4344C127.203 20.4133 127.415 20.4133 127.605 20.3922H127.648C127.796 20.3922 127.923 20.4344 127.987 20.5192C128.05 20.604 128.072 20.7099 128.072 20.8373V22.2569ZM140.002 22.3417C140.002 22.4902 139.98 22.5961 139.917 22.6594C139.853 22.7231 139.726 22.7653 139.578 22.7868C139.408 22.8079 139.218 22.8501 139.027 22.8716C138.815 22.9138 138.56 22.9563 138.264 22.9775C137.946 22.9986 137.586 23.0408 137.162 23.0623C136.717 23.0834 136.187 23.0834 135.552 23.0834C134.852 23.0834 134.217 23.0197 133.623 22.9138C133.03 22.8079 132.5 22.575 132.076 22.2569C131.631 21.9392 131.271 21.5153 131.017 20.9432C130.763 20.3711 130.635 19.6505 130.635 18.7393V11.3441C130.635 10.4328 130.763 9.71261 131.017 9.1402C131.271 8.56812 131.631 8.12305 132.076 7.80533C132.5 7.48761 133.03 7.27548 133.623 7.16958C134.217 7.06367 134.852 7 135.552 7C136.187 7 136.717 7 137.162 7.02144C137.586 7.04255 137.946 7.08478 138.264 7.10622C138.56 7.12734 138.815 7.16958 139.027 7.19102C139.218 7.23325 139.408 7.27548 139.578 7.29692C139.726 7.31804 139.853 7.36027 139.917 7.42394C139.98 7.48761 140.002 7.59352 140.002 7.74166V9.09797C140.002 9.20387 139.959 9.30978 139.874 9.39457C139.79 9.47936 139.684 9.52192 139.578 9.52192H135.255C134.64 9.52192 134.196 9.64894 133.962 9.90331C133.708 10.1574 133.581 10.6447 133.581 11.3441V13.6327H139.324C139.429 13.6327 139.535 13.675 139.62 13.7598C139.705 13.8446 139.747 13.9505 139.747 14.0564V15.5819C139.747 15.6882 139.705 15.7941 139.62 15.8789C139.535 15.9636 139.429 16.0059 139.324 16.0059H133.581V18.7393C133.581 19.4387 133.708 19.926 133.962 20.1804C134.196 20.4344 134.64 20.5618 135.255 20.5618H139.578C139.684 20.5618 139.79 20.604 139.874 20.6888C139.959 20.7736 140.002 20.8795 140.002 20.9854V22.3417Z" fill="#292D33"></path>
      <path d="M65.8759 29.9868C65.8759 30.5816 65.7677 31.0816 65.565 31.4867C65.3489 31.8921 65.0653 32.2167 64.7002 32.4597C64.349 32.7167 63.9303 32.8921 63.4706 32.9866C62.9979 33.0948 62.4979 33.149 61.9707 33.149C61.7953 33.149 61.5925 33.1354 61.3492 33.1218C61.1195 33.1084 60.9168 33.1084 60.768 33.0948V36.6215C60.768 36.6891 60.7411 36.7567 60.7005 36.8109C60.6465 36.8648 60.579 36.8918 60.5114 36.8918H59.1603C59.0927 36.8918 59.0251 36.8648 58.9709 36.8109C58.917 36.7567 58.89 36.6891 58.89 36.6215V27.3249C58.89 27.1897 58.9306 27.0952 59.0115 27.0276C59.0791 26.9737 59.1873 26.9331 59.3224 26.9198C59.6736 26.8655 60.079 26.8249 60.5384 26.7846C60.998 26.7573 61.4844 26.744 61.9843 26.744C62.4979 26.744 62.9979 26.7979 63.4706 26.8925C63.9303 26.987 64.349 27.1628 64.7002 27.4061C65.0653 27.6494 65.3489 27.9736 65.565 28.3654C65.7677 28.7709 65.8759 29.2708 65.8759 29.8653V29.9868ZM63.9978 29.8517C63.9978 29.2845 63.8354 28.879 63.4979 28.6494C63.16 28.406 62.6464 28.2845 61.9707 28.2845C61.9031 28.2845 61.8086 28.2845 61.7004 28.2845C61.5789 28.2978 61.4707 28.2978 61.3492 28.2978C61.2277 28.3115 61.1195 28.3115 61.025 28.3115C60.9168 28.3248 60.8356 28.3248 60.768 28.3385V31.5679C60.8223 31.5679 60.9032 31.5679 61.025 31.5679C61.1332 31.5816 61.2547 31.5816 61.3762 31.5816C61.498 31.5949 61.6059 31.5949 61.7277 31.5949C61.8355 31.6085 61.9168 31.6085 61.9707 31.6085C62.7003 31.6085 63.2276 31.4734 63.5382 31.2031C63.8491 30.9328 63.9978 30.5274 63.9978 29.9735V29.8517ZM74.6456 36.7297C74.6456 36.8379 74.5917 36.8918 74.4835 36.8918H72.8348C72.7672 36.8918 72.7133 36.8648 72.6727 36.8109C72.6324 36.7567 72.6051 36.6891 72.5648 36.6215L70.6189 33.0272H70.4298C70.2541 33.0272 70.0377 33.0139 69.808 33.0003C69.5784 32.9866 69.3756 32.9866 69.2272 32.9733V36.6215C69.2272 36.6891 69.1999 36.7567 69.1596 36.8109C69.1054 36.8648 69.0378 36.8918 68.9702 36.8918H67.6191C67.5515 36.8918 67.484 36.8648 67.43 36.8109C67.3758 36.7567 67.3488 36.6891 67.3488 36.6215V27.3249C67.3488 27.1897 67.3894 27.0952 67.4703 27.0276C67.5379 26.9737 67.6461 26.9331 67.7812 26.9198C68.1324 26.8655 68.5378 26.8249 68.9975 26.7846C69.4569 26.7573 69.9432 26.744 70.4431 26.744C70.9568 26.744 71.4567 26.7979 71.9297 26.8925C72.3891 27.0007 72.8078 27.1764 73.1593 27.4061C73.5242 27.6358 73.8078 27.9467 74.0241 28.3385C74.2268 28.7302 74.3347 29.2169 74.3347 29.7977V29.9192C74.3347 30.6356 74.1726 31.2301 73.8347 31.6761C73.5105 32.1218 73.0645 32.4597 72.4973 32.676L74.6186 36.6215C74.6319 36.6488 74.6456 36.6891 74.6456 36.7297ZM72.4567 29.7977C72.4567 29.2845 72.2945 28.9196 71.9567 28.6896C71.6188 28.46 71.1052 28.3521 70.4298 28.3521C70.3623 28.3521 70.2674 28.3521 70.1595 28.3521C70.0377 28.3654 69.9299 28.3654 69.808 28.3654C69.6865 28.3791 69.5784 28.3791 69.4838 28.3791C69.3756 28.3924 69.2948 28.3924 69.2272 28.406V31.4464C69.2811 31.4464 69.3623 31.4464 69.4838 31.4464C69.592 31.4597 69.7135 31.4598 69.835 31.4598C69.9568 31.4734 70.0647 31.4734 70.1865 31.4734C70.2947 31.4867 70.3756 31.4867 70.4298 31.4867C71.1322 31.4867 71.6458 31.3789 71.97 31.1492C72.2945 30.9195 72.4567 30.5141 72.4567 29.9192V29.7977Z" fill="#5C8EE6"></path>
      <path d="M83.3208 32.7842C83.3208 33.5272 83.2259 34.176 83.0368 34.7029C82.8341 35.2298 82.5775 35.6622 82.226 36.0001C81.8884 36.3379 81.483 36.5946 81.01 36.7567C80.5507 36.9188 80.037 37 79.4831 37C78.9156 37 78.402 36.9188 77.9426 36.7567C77.4696 36.5946 77.0642 36.3379 76.7267 36.0001C76.3888 35.6622 76.1185 35.2298 75.9291 34.7029C75.7264 34.176 75.6319 33.5272 75.6319 32.7842V30.9598C75.6319 30.2168 75.7264 29.5817 75.9291 29.0411C76.1185 28.5142 76.3888 28.0682 76.7267 27.7303C77.0642 27.3925 77.4696 27.1495 77.9426 26.987C78.402 26.8249 78.9156 26.744 79.4831 26.744C80.037 26.744 80.5507 26.8249 81.01 26.987C81.483 27.1495 81.8884 27.3925 82.226 27.7303C82.5775 28.0682 82.8341 28.5142 83.0368 29.0411C83.2259 29.5817 83.3208 30.2168 83.3208 30.9598V32.7842ZM81.4424 30.9598C81.4424 30.0544 81.2803 29.406 80.9561 28.9869C80.6452 28.5818 80.1452 28.3791 79.4831 28.3791C78.8074 28.3791 78.3075 28.5818 77.9966 28.9869C77.6724 29.406 77.5102 30.0544 77.5102 30.9598V32.7842C77.5102 33.6893 77.6724 34.3381 77.9966 34.7435C78.3075 35.1623 78.8074 35.365 79.4831 35.365C80.1452 35.365 80.6452 35.1623 80.9561 34.7435C81.2803 34.3381 81.4424 33.6893 81.4424 32.7842V30.9598ZM92.3604 32.8651C92.3604 34.2029 91.9956 35.2298 91.2523 35.9325C90.5227 36.6488 89.4688 37 88.1177 37C87.8607 37 87.6177 37 87.3475 36.9864C87.0772 36.9731 86.8205 36.9594 86.5772 36.9461C86.3202 36.9324 86.1042 36.9055 85.9015 36.8918C85.6988 36.8785 85.5367 36.8512 85.4421 36.8379C85.3206 36.8243 85.2394 36.784 85.1855 36.7164C85.1179 36.6488 85.0906 36.554 85.0906 36.4188V27.3249C85.0906 27.1897 85.1179 27.0952 85.1855 27.0276C85.2394 26.9601 85.3206 26.9198 85.4421 26.9061C85.5367 26.8925 85.6988 26.8655 85.9015 26.8522C86.1042 26.8386 86.3202 26.8116 86.5772 26.798C86.8205 26.7846 87.0772 26.771 87.3475 26.7573C87.6177 26.744 87.8607 26.744 88.1177 26.744C89.4688 26.744 90.5227 27.0952 91.2523 27.7979C91.9956 28.5142 92.3604 29.5411 92.3604 30.8789V32.8651ZM90.4824 30.8789C90.4824 30.3789 90.4281 29.9599 90.3066 29.6356C90.1851 29.2978 90.0094 29.0411 89.8067 28.8384C89.5903 28.6494 89.3337 28.5142 89.0501 28.433C88.7528 28.3654 88.4419 28.3248 88.1041 28.3248C87.8474 28.3248 87.6311 28.3248 87.4553 28.3385C87.2799 28.3521 87.1178 28.3521 86.969 28.3654V35.3919C87.1178 35.4056 87.2799 35.4056 87.4553 35.4189C87.6311 35.4325 87.8474 35.4325 88.1041 35.4325C88.4419 35.4325 88.7528 35.3919 89.0501 35.3111C89.3337 35.2435 89.5903 35.1083 89.8067 34.9056C90.0094 34.7165 90.1851 34.4596 90.3066 34.1217C90.4281 33.7975 90.4824 33.3787 90.4824 32.8788V30.8789ZM101.468 33.176C101.468 33.892 101.373 34.5002 101.198 34.9865C101.009 35.4732 100.752 35.8649 100.427 36.1622C100.09 36.4594 99.6978 36.6758 99.2518 36.7973C98.7924 36.9325 98.2925 37 97.7519 37C97.2116 37 96.7117 36.9325 96.2656 36.7973C95.8063 36.6758 95.4145 36.4594 95.0899 36.1622C94.7521 35.8649 94.4954 35.4732 94.3197 34.9865C94.1306 34.5002 94.0361 33.892 94.0361 33.176V27.1088C94.0361 27.0413 94.063 26.9737 94.1173 26.9198C94.1712 26.8792 94.2388 26.8522 94.3064 26.8522H95.6442C95.7117 26.8522 95.7793 26.8792 95.8332 26.9198C95.8872 26.9737 95.9144 27.0413 95.9144 27.1088V33.1894C95.9144 33.5678 95.9414 33.9057 95.9953 34.1893C96.0496 34.4732 96.1441 34.7165 96.2926 34.9056C96.4277 35.0947 96.6168 35.2298 96.8468 35.3244C97.0765 35.4189 97.3871 35.4595 97.7519 35.4595C98.117 35.4595 98.4143 35.4189 98.6573 35.3244C98.887 35.2298 99.0764 35.0947 99.2248 34.9056C99.36 34.7165 99.4545 34.4732 99.5087 34.1893C99.5627 33.9057 99.5896 33.5678 99.5896 33.1894V27.1088C99.5896 27.0413 99.6169 26.9737 99.6709 26.9198C99.7248 26.8792 99.7924 26.8522 99.8599 26.8522H101.198C101.265 26.8522 101.333 26.8792 101.387 26.9198C101.441 26.9737 101.468 27.0413 101.468 27.1088V33.176ZM109.4 36.4731C109.4 36.5676 109.373 36.6352 109.319 36.6758C109.265 36.7164 109.197 36.7567 109.103 36.784C109.048 36.7973 108.954 36.8243 108.832 36.8379C108.697 36.8649 108.535 36.8918 108.346 36.9188C108.157 36.9325 107.941 36.9594 107.711 36.9731C107.481 36.9864 107.224 37 106.968 37C106.562 37 106.13 36.9461 105.684 36.8243C105.238 36.7028 104.819 36.4864 104.454 36.1758C104.076 35.8649 103.779 35.4462 103.522 34.9189C103.279 34.392 103.157 33.703 103.157 32.8651V30.8789C103.157 30.0274 103.279 29.3384 103.522 28.7978C103.779 28.2709 104.076 27.8521 104.454 27.5412C104.819 27.2303 105.238 27.0276 105.684 26.9061C106.13 26.798 106.562 26.744 106.968 26.744C107.224 26.744 107.481 26.7573 107.711 26.771C107.941 26.7846 108.157 26.8116 108.346 26.8249C108.535 26.8522 108.697 26.8792 108.832 26.9061C108.954 26.9331 109.048 26.9467 109.103 26.9601C109.197 26.987 109.265 27.0143 109.319 27.0546C109.373 27.0952 109.4 27.1764 109.4 27.271V28.1764C109.4 28.2572 109.386 28.3248 109.346 28.3791C109.305 28.433 109.224 28.46 109.13 28.46H109.103C108.981 28.4466 108.846 28.433 108.684 28.4194C108.508 28.406 108.332 28.406 108.143 28.3924C107.954 28.3791 107.765 28.3791 107.562 28.3654C107.359 28.3521 107.17 28.3521 106.995 28.3521C106.711 28.3521 106.441 28.3924 106.211 28.4736C105.968 28.5681 105.765 28.7033 105.589 28.8924C105.413 29.0951 105.278 29.352 105.184 29.6763C105.089 30.0005 105.035 30.4059 105.035 30.8789V32.8651C105.035 33.3381 105.089 33.7299 105.184 34.0541C105.278 34.3787 105.413 34.6353 105.589 34.838C105.765 35.0408 105.968 35.1759 106.211 35.2568C106.441 35.3513 106.711 35.3919 106.995 35.3919C107.17 35.3919 107.359 35.3919 107.562 35.3786C107.765 35.365 107.954 35.365 108.143 35.3513C108.332 35.338 108.508 35.3244 108.684 35.3111C108.846 35.2974 108.981 35.2974 109.103 35.2838H109.13C109.224 35.2838 109.305 35.311 109.346 35.365C109.386 35.4189 109.4 35.4865 109.4 35.5677V36.4731ZM117.508 28.1764C117.508 28.2439 117.48 28.3115 117.426 28.3521C117.372 28.3924 117.305 28.4194 117.237 28.4194H114.873V36.6216C114.873 36.6891 114.845 36.7567 114.791 36.811C114.737 36.8649 114.67 36.8918 114.602 36.8918H113.264C113.197 36.8918 113.129 36.8649 113.075 36.811C113.021 36.7567 112.994 36.6891 112.994 36.6216V28.4194H110.63C110.562 28.4194 110.494 28.3924 110.44 28.3521C110.386 28.3115 110.359 28.2439 110.359 28.1764V27.1088C110.359 27.0413 110.386 26.9737 110.44 26.9198C110.494 26.8792 110.562 26.8522 110.63 26.8522H117.237C117.305 26.8522 117.372 26.8792 117.426 26.9198C117.48 26.9737 117.508 27.0413 117.508 27.1088V28.1764ZM120.737 36.6216C120.737 36.6891 120.71 36.7567 120.656 36.811C120.602 36.8649 120.534 36.8918 120.467 36.8918H119.129C119.061 36.8918 118.994 36.8649 118.94 36.811C118.886 36.7567 118.859 36.6891 118.859 36.6216V27.1088C118.859 27.0413 118.886 26.9737 118.94 26.9198C118.994 26.8792 119.061 26.8522 119.129 26.8522H120.467C120.534 26.8522 120.602 26.8792 120.656 26.9198C120.71 26.9737 120.737 27.0413 120.737 27.1088V36.6216ZM130.182 32.7842C130.182 33.5272 130.088 34.176 129.898 34.7029C129.696 35.2298 129.439 35.6622 129.088 36.0001C128.75 36.3379 128.344 36.5946 127.871 36.7567C127.412 36.9188 126.899 37 126.344 37C125.777 37 125.264 36.9188 124.804 36.7567C124.331 36.5946 123.926 36.3379 123.588 36.0001C123.25 35.6622 122.98 35.2298 122.791 34.7029C122.588 34.176 122.494 33.5272 122.494 32.7842V30.9598C122.494 30.2168 122.588 29.5817 122.791 29.0411C122.98 28.5142 123.25 28.0682 123.588 27.7303C123.926 27.3925 124.331 27.1495 124.804 26.987C125.264 26.8249 125.777 26.744 126.344 26.744C126.899 26.744 127.412 26.8249 127.871 26.987C128.344 27.1495 128.75 27.3925 129.088 27.7303C129.439 28.0682 129.696 28.5142 129.898 29.0411C130.088 29.5817 130.182 30.2168 130.182 30.9598V32.7842ZM128.304 30.9598C128.304 30.0544 128.142 29.406 127.817 28.9869C127.507 28.5818 127.007 28.3791 126.344 28.3791C125.669 28.3791 125.169 28.5818 124.858 28.9869C124.534 29.406 124.372 30.0544 124.372 30.9598V32.7842C124.372 33.6893 124.534 34.3381 124.858 34.7435C125.169 35.1623 125.669 35.365 126.344 35.365C127.007 35.365 127.507 35.1623 127.817 34.7435C128.142 34.3381 128.304 33.6893 128.304 32.7842V30.9598ZM139.546 36.3516C139.546 36.5001 139.492 36.6352 139.398 36.7297C139.29 36.8379 139.155 36.8918 139.006 36.8918H137.641C137.479 36.8918 137.33 36.8649 137.195 36.8243C137.046 36.784 136.925 36.6488 136.817 36.4055L133.817 29.8247C133.776 29.7571 133.736 29.7169 133.696 29.7169C133.655 29.7169 133.628 29.7571 133.628 29.8247V36.6216C133.628 36.6891 133.601 36.7567 133.56 36.811C133.506 36.8649 133.439 36.8918 133.371 36.8918H132.223C132.155 36.8918 132.087 36.8649 132.033 36.811C131.979 36.7567 131.952 36.6891 131.952 36.6216V27.3925C131.952 27.244 132.006 27.1088 132.114 27.0007C132.209 26.9061 132.344 26.8522 132.493 26.8522H133.952C134.101 26.8522 134.209 26.8792 134.303 26.9331C134.385 26.987 134.465 27.1088 134.547 27.2846L137.695 34.2299C137.722 34.2975 137.763 34.3381 137.803 34.3381C137.844 34.3381 137.871 34.2975 137.871 34.2166V27.1088C137.871 26.9331 137.952 26.8522 138.128 26.8522H139.29C139.465 26.8522 139.546 26.9331 139.546 27.1088V36.3516Z" fill="#5C8EE6"></path>
    </g>
    <defs>
      <clipPath id="clip0_191_1668">
        <rect width="140" height="44" fill="white"></rect>
      </clipPath>
    </defs>
  </symbol>
  <symbol viewBox="0 0 36 24" fill="none" xmlns="http://www.w3.org/2000/svg" id="arrow-prev">
    <path d="M10.1616 4.68629L10.8687 5.3934L4.41405 11.848L33 11.8479L32.9997 12.8482L4.42381 12.848L10.8687 19.2929L10.1616 20L3.00959 12.848H2.99993V12.8383L2.50473 12.3431L10.1616 4.68629Z" fill="white"/>
  </symbol>
  <symbol viewBox="0 0 36 24" fill="none" xmlns="http://www.w3.org/2000/svg" id="arrow-next">
    <path d="M25.8384 4.68629L25.1313 5.3934L31.5859 11.848L3 11.8479L3.00035 12.8482L31.5762 12.848L25.1313 19.2929L25.8384 20L32.9904 12.848H33.0001V12.8383L33.4953 12.3431L25.8384 4.68629Z" fill="white"/>
  </symbol>

  <symbol viewBox="0 0 30 30" fill="none" xmlns="http://www.w3.org/2000/svg" id="chemistry">
    <path d="M22.3393 12.375L19.6675 15H10.2456L17.6518 7.64062C17.9331 7.35938 17.9331 6.89062 17.6518 6.60938C17.3706 6.28125 16.855 6.28125 16.5737 6.60938L4.52683 18.6094C2.74558 20.4375 2.41746 23.3906 4.10496 25.3594C5.08933 26.4375 6.40183 27 7.76121 27C9.02683 27 10.2456 26.5312 11.1831 25.5938L23.4175 13.4062C23.6987 13.125 23.6987 12.6562 23.4175 12.375C23.1362 12.0469 22.6206 12.0469 22.3393 12.375ZM10.1518 24.5625C9.49558 25.1719 8.65183 25.5 7.76121 25.5C6.77683 25.5 5.88621 25.0781 5.22996 24.375C4.10496 23.0625 4.29246 21 5.60496 19.6875L8.74558 16.5H18.1675L10.1518 24.5625ZM26.7925 11.4844L18.5425 3.23438C18.4018 3.09375 18.2143 3 18.0268 3C17.7925 3 17.605 3.09375 17.4643 3.23438C17.1831 3.51562 17.1831 4.03125 17.4643 4.3125L25.7143 12.5625C25.855 12.7031 26.0425 12.75 26.2768 12.75C26.4643 12.75 26.6518 12.7031 26.7925 12.5625C27.0737 12.2812 27.0737 11.7656 26.7925 11.4844Z" fill="#5C8EE6"/>
  </symbol>

  <symbol viewBox="0 0 30 30" fill="none" xmlns="http://www.w3.org/2000/svg" id="autowash">
    <path d="M14.75 8.95312C15.9688 8.95312 17 7.92188 17 6.70312C17 5.71875 15.8281 3.9375 15.3594 3.23438C15.2188 3.09375 14.9844 3 14.75 3C14.4688 3 14.2344 3.09375 14.0938 3.28125C13.625 3.98438 12.5 5.76562 12.5 6.70312C12.5 7.96875 13.4844 8.95312 14.75 8.95312ZM14.75 5.10938C15.1719 5.85938 15.4531 6.51562 15.5 6.70312C15.5 7.125 15.125 7.45312 14.75 7.45312C14.3281 7.45312 14 7.125 14 6.70312C14 6.46875 14.2812 5.8125 14.75 5.10938ZM21.5 8.95312C22.7188 8.95312 23.75 7.96875 23.75 6.70312C23.75 5.76562 22.5781 3.98438 22.1094 3.28125C21.9688 3.09375 21.7344 3 21.5 3C21.2188 3 20.9844 3.09375 20.8438 3.28125C20.375 3.98438 19.25 5.76562 19.25 6.70312C19.25 7.96875 20.2344 8.95312 21.5 8.95312ZM21.5 5.10938C21.9219 5.85938 22.2031 6.51562 22.25 6.70312C22.25 7.125 21.875 7.45312 21.5 7.45312C21.0781 7.45312 20.75 7.125 20.75 6.70312C20.75 6.46875 21.0312 5.8125 21.5 5.10938ZM8 8.95312C9.21875 8.95312 10.25 7.96875 10.25 6.70312C10.25 5.76562 9.07812 3.98438 8.60938 3.28125C8.46875 3.09375 8.23438 3 8 3C7.71875 3 7.48438 3.09375 7.34375 3.28125C6.875 3.98438 5.75 5.76562 5.75 6.70312C5.75 7.96875 6.73438 8.95312 8 8.95312ZM8 5.10938C8.42188 5.8125 8.70312 6.46875 8.75 6.70312C8.75 7.125 8.375 7.45312 8 7.45312C7.57812 7.45312 7.25 7.125 7.25 6.70312C7.25 6.46875 7.53125 5.8125 8 5.10938ZM20 19.4531C19.3438 19.4531 18.875 19.9688 18.875 20.5781C18.875 21.2344 19.3438 21.7031 20 21.7031C20.6094 21.7031 21.125 21.2344 21.125 20.5781C21.125 19.9688 20.6094 19.4531 20 19.4531ZM22.3906 16.7812L21.6406 13.5469C21.3125 12.1875 20.1406 11.2031 18.7344 11.2031H10.5781C9.21875 11.2031 8 12.1875 7.67188 13.5469L6.92188 16.875C5.79688 17.4375 5 18.6094 5 19.9688V22.5469C5 23.4844 5.60938 24.3281 6.5 24.6094V26.2031C6.5 26.625 6.82812 26.9531 7.25 26.9531C7.625 26.9531 8 26.625 8 26.2031V24.7031H21.5V26.2031C21.5 26.625 21.8281 26.9531 22.25 26.9531C22.625 26.9531 23 26.625 23 26.2031V24.6094C23.8906 24.3281 24.4531 23.4844 24.5 22.5469V19.9688C24.5 18.6094 23.6562 17.3438 22.3906 16.7812ZM9.125 13.875C9.3125 13.2188 9.92188 12.75 10.625 12.75H18.7344C19.4375 12.75 20.0469 13.2188 20.1875 13.875L20.7969 16.5H8.5625L9.125 13.875ZM23 22.5469C23 22.9219 22.6719 23.25 22.2969 23.25H7.15625C6.78125 23.2031 6.5 22.9219 6.5 22.5469V19.9688C6.5 18.8906 7.39062 18 8.46875 18H20.9844C22.0625 18 23 18.8906 23 19.9688V22.5469ZM9.5 19.4531C8.84375 19.4531 8.375 19.9688 8.375 20.5781C8.375 21.2344 8.84375 21.7031 9.5 21.7031C10.1094 21.7031 10.625 21.2344 10.625 20.5781C10.625 19.9688 10.1094 19.4531 9.5 19.4531Z" fill="#5C8EE6"/>
  </symbol>

  <symbol viewBox="0 0 30 30" fill="none" xmlns="http://www.w3.org/2000/svg" id="food">
    <path d="M14.2743 3.60938C14.1805 3.23438 13.8055 2.95312 13.3837 3.04688C12.9618 3.14062 12.7274 3.51562 12.8212 3.9375L13.8993 9.32812C14.3212 11.5781 13.5243 13.2188 11.5087 14.1094L11.0399 14.2969L11.4618 24.8906C11.4618 25.0781 11.4149 25.2656 11.2743 25.3594C11.2274 25.4531 11.1337 25.5 10.993 25.5H9.58678C9.44616 25.5 9.35241 25.4531 9.25866 25.3594C9.16491 25.2656 9.07116 25.0781 9.07116 24.9375L9.49303 14.2969L9.02428 14.1094C7.00866 13.1719 6.21178 11.5781 6.63366 9.375L7.75866 3.9375C7.80553 3.51562 7.57116 3.14062 7.14928 3.04688C6.77428 2.95312 6.35241 3.23438 6.25866 3.60938L5.13366 9.09375C4.61803 11.8125 5.60241 13.9688 7.94616 15.2344L7.57116 24.8906C7.57116 25.4062 7.75866 25.9688 8.13366 26.3906C8.50866 26.8125 9.02428 27 9.58678 27H10.993C11.5555 27 12.0243 26.8125 12.3993 26.3906C12.7743 25.9688 12.9618 25.4062 12.9618 24.8438L12.5868 15.2344C14.8837 14.0156 15.9149 11.7656 15.3993 9.04688L14.2743 3.60938ZM22.8524 3C21.3524 3 18.8212 5.0625 17.6962 7.73438C16.8993 9.60938 16.1024 13.3125 19.7587 17.2969L19.4305 24.75C19.3837 25.4062 19.618 26.0156 20.0399 26.4375C20.4149 26.8125 20.8837 27 21.3524 27H22.5712C23.6493 27 24.5399 26.0625 24.5399 24.8438V4.82812C24.5399 3.84375 23.7899 3 22.8524 3ZM23.0399 24.8438C23.0399 25.2656 22.7587 25.5 22.5712 25.5H21.3524C21.2587 25.5 21.1649 25.4531 21.118 25.4062C20.9774 25.2656 20.9305 25.0312 20.9305 24.8438L21.3055 16.7344L21.0712 16.5C17.9305 13.2188 18.2587 10.2656 19.0555 8.34375C20.1337 5.85938 22.243 4.5 22.8524 4.5C22.8993 4.5 23.0399 4.64062 23.0399 4.82812V24.8438ZM8.74303 11.25C8.74303 11.25 8.74303 11.25 8.78991 11.25C9.16491 11.25 9.49303 10.9688 9.49303 10.5469L9.86803 3.79688C9.91491 3.42188 9.58678 3.04688 9.16491 3.04688C8.78991 3 8.41491 3.32812 8.41491 3.75L8.03991 10.5C7.99303 10.875 8.32116 11.25 8.74303 11.25ZM11.7899 11.25C12.2118 11.25 12.5399 10.875 12.493 10.5L12.118 3.75C12.118 3.32812 11.7899 3 11.368 3.04688C10.9462 3.04688 10.618 3.42188 10.6649 3.79688L11.0399 10.5469C11.0399 10.9688 11.368 11.25 11.7899 11.25Z" fill="#5C8EE6"/>
  </symbol>

  <symbol viewBox="0 0 30 30" fill="none" xmlns="http://www.w3.org/2000/svg" id="paints">
    <path d="M22.5 3H7.5C6.65625 3 6 3.70312 6 4.5V18C6 19.6875 7.3125 21 9 21H12V24C12 25.6875 13.3125 27 15 27C16.6406 27 18 25.6875 18 24V21H21C22.6406 21 24 19.6875 24 18V4.5C24 3.70312 23.2969 3 22.5 3ZM22.5 18C22.5 18.8438 21.7969 19.5 21 19.5H16.5V24C16.5 24.8438 15.7969 25.5 15 25.5C14.1562 25.5 13.5 24.8438 13.5 24V19.5H9C8.15625 19.5 7.5 18.8438 7.5 18V16.5H22.5V18ZM22.5 15H7.5V4.5H22.5V15Z" fill="#5C8EE6"/>
  </symbol>

  <symbol viewBox="0 0 30 24" fill="none" xmlns="http://www.w3.org/2000/svg" id="cosmetics">
    <path d="M15 19.5C15.375 19.5 15.75 19.1719 15.75 18.75V17.25H17.25C17.625 17.25 18 16.9219 18 16.5C18 16.125 17.625 15.75 17.25 15.75H15.75V14.25C15.75 13.875 15.375 13.5 15 13.5C14.5781 13.5 14.25 13.875 14.25 14.25V15.75H12.75C12.3281 15.75 12 16.125 12 16.5C12 16.9219 12.3281 17.25 12.75 17.25H14.25V18.75C14.25 19.1719 14.5781 19.5 15 19.5ZM3.75 10.5C4.125 10.5 4.5 10.1719 4.5 9.75V7.5H6C6.375 7.5 6.75 7.17188 6.75 6.75C6.75 6.375 6.375 6 6 6H4.5V3.75C4.5 3.375 4.125 3 3.75 3C3.32812 3 3 3.375 3 3.75V6H0.75C0.328125 6 0 6.375 0 6.75C0 7.07812 0.328125 7.5 0.75 7.5H3V9.75C3 10.1719 3.32812 10.5 3.75 10.5ZM29.25 19.5H27V17.25C27 16.875 26.625 16.5 26.25 16.5C25.8281 16.5 25.5 16.875 25.5 17.25V19.5H23.25C22.8281 19.5 22.5 19.875 22.5 20.25C22.5 20.625 22.8281 21 23.25 21H25.5V23.25C25.5 23.6719 25.8281 24 26.25 24C26.625 24 27 23.6719 27 23.25V21H29.25C29.625 21 29.9531 20.6719 29.9531 20.2969C29.9531 19.9219 29.625 19.5 29.25 19.5ZM21.375 21.5625C20.8594 21.5625 20.0625 22.5 17.9531 22.5H13.2188C11.4375 22.5 9.79688 21.6562 8.76562 20.25L4.73438 14.9062C4.54688 14.6719 4.45312 14.4375 4.45312 14.1562C4.45312 13.5469 4.96875 13.125 5.53125 13.125C5.76562 13.125 6.14062 13.2188 6.42188 13.5938L8.01562 15.7031C8.29688 16.0781 8.76562 16.3125 9.1875 16.3125C9.375 16.3125 10.5 16.1719 10.5 15.0469C10.5 15.0469 10.5 15.0469 10.5 15V4.17188C10.5 3.60938 10.9219 3 11.625 3C12.2344 3 12.75 3.51562 12.75 4.125V11.25C12.75 11.3438 12.8438 12.0469 13.5 12.0469C13.875 12.0469 14.2031 11.6719 14.2031 11.2969V2.67188C14.2031 2.10938 14.625 1.5 15.3281 1.5C15.9375 1.5 16.4531 2.01562 16.4531 2.625V11.25C16.4531 11.3438 16.5469 12.0469 17.2031 12.0469C17.5781 12.0469 17.9531 11.6719 17.9531 11.2969V4.17188C17.9531 3.60938 18.375 3 19.0781 3C19.6875 3 20.2031 3.51562 20.2031 4.125V11.2031C20.2031 11.3438 20.2969 12 20.9531 12C21.3281 12 21.7031 11.6719 21.7031 11.2969V6.42188C21.7031 5.8125 22.125 5.25 22.8281 5.25C23.4375 5.25 23.9531 5.76562 23.9531 6.375V14.1094C23.9531 14.4844 24.2812 14.8594 24.7031 14.8594C25.0781 14.8594 25.5 14.4844 25.5 14.1094V6.46875C25.5 5.4375 24.7031 3.75 22.8281 3.75C22.4531 3.75 22.0781 3.84375 21.7031 3.98438C21.6562 2.625 20.4844 1.5 19.0781 1.5C18.6094 1.5 18.1875 1.64062 17.8125 1.82812C17.4844 0.796875 16.5 0 15.3281 0C14.1562 0 13.2188 0.796875 12.8438 1.875C12.4688 1.64062 12.0469 1.5 11.625 1.5C9.75 1.5 9 3.23438 9 4.26562V14.4375L7.54688 12.6094C7.07812 12 6.32812 11.625 5.53125 11.625C4.125 11.625 3 12.7031 3 14.1562C3 14.7188 3.14062 15.3281 3.51562 15.7969L7.59375 21.1406C8.85938 22.9219 10.9688 24 13.2188 24H18C19.5 24 22.125 23.2969 22.125 22.3125C22.125 22.0312 21.9375 21.5625 21.375 21.5625Z" fill="#5C8EE6"/>
  </symbol>

  <symbol viewBox="0 0 30 30" fill="none" xmlns="http://www.w3.org/2000/svg" id="autocosmetics">
    <path d="M23.1406 16.8281L22.3906 13.5938C22.0625 12.2344 20.8906 11.25 19.4844 11.25H11.375C9.96875 11.25 8.75 12.2344 8.42188 13.5938L7.67188 16.9219C6.54688 17.4844 5.75 18.6562 5.75 20.0156V22.5938C5.75 23.5312 6.35938 24.375 7.25 24.6562V26.25C7.25 26.6719 7.57812 27 8 27C8.375 27 8.75 26.6719 8.75 26.25V24.75H22.25V26.25C22.25 26.6719 22.5781 27 23 27C23.375 27 23.75 26.6719 23.75 26.25V24.6562C24.6406 24.375 25.2031 23.5312 25.25 22.5938V20.0156C25.25 18.6562 24.4062 17.3906 23.1406 16.8281ZM9.875 13.9219C10.0625 13.2656 10.6719 12.75 11.375 12.75H19.4844C20.1875 12.75 20.7969 13.2656 20.9375 13.9219L21.5469 16.5H9.3125L9.875 13.9219ZM23.75 22.5938C23.75 22.9688 23.4219 23.25 23.0469 23.25H7.90625C7.53125 23.25 7.25 22.9688 7.25 22.5938V20.0156C7.25 18.9375 8.14062 18 9.21875 18H21.7344C22.8125 18 23.75 18.9375 23.75 20.0156V22.5938ZM20.75 19.5C20.0938 19.5 19.625 20.0156 19.625 20.625C19.625 21.2812 20.0938 21.75 20.75 21.75C21.3594 21.75 21.875 21.2812 21.875 20.625C21.875 20.0156 21.3594 19.5 20.75 19.5ZM10.25 19.5C9.59375 19.5 9.125 20.0156 9.125 20.625C9.125 21.2812 9.59375 21.75 10.25 21.75C10.8594 21.75 11.375 21.2812 11.375 20.625C11.375 20.0156 10.8594 19.5 10.25 19.5ZM8.75 10.5C9.96875 10.5 11.0469 9.9375 11.7031 9.04688H19.25C19.9062 9.9375 20.9844 10.5 22.25 10.5C24.3125 10.5 26 8.85938 26 6.75C26 4.6875 24.3125 3 22.25 3C20.9844 3 19.9062 3.60938 19.25 4.54688H11.7031C11.0469 3.60938 9.96875 3 8.75 3C6.64062 3 5 4.6875 5 6.75C5 8.85938 6.64062 10.5 8.75 10.5ZM6.59375 6C6.92188 5.15625 7.76562 4.5 8.75 4.5C9.40625 4.5 10.0625 4.875 10.5312 5.4375C10.8125 5.8125 11.2344 6.04688 11.7031 6.04688H19.25C19.7188 6.04688 20.1406 5.8125 20.4219 5.4375C20.8906 4.875 21.5469 4.5 22.25 4.5C23.1875 4.5 24.0312 5.15625 24.3594 6H22.25V7.5H24.3594C24.0312 8.39062 23.1875 9 22.25 9C21.5469 9 20.8906 8.67188 20.4219 8.10938C20.1406 7.73438 19.7188 7.54688 19.25 7.54688H11.7031C11.2344 7.54688 10.8125 7.73438 10.5312 8.10938C10.0625 8.67188 9.40625 9 8.75 9C7.76562 9 6.92188 8.39062 6.59375 7.5H8.75V6H6.59375Z" fill="#5C8EE6"/>
  </symbol>

  <symbol viewBox="0 0 30 30" fill="none" xmlns="http://www.w3.org/2000/svg" id="clothcare">
    <path d="M29.8813 8.54898C29.6938 7.98648 29.3188 7.56461 28.8032 7.28336L20.5063 3.06461C20.1782 2.92398 19.8032 3.01773 19.5688 3.29898C18.8188 4.37711 16.9438 5.08023 14.9751 5.08023C13.0532 5.08023 11.1782 4.37711 10.4282 3.29898C10.1938 3.01773 9.81882 2.92398 9.4907 3.06461L1.19382 7.28336C0.678196 7.56461 0.303196 7.98648 0.115696 8.54898C-0.0718041 9.11148 -0.0249291 9.67398 0.209446 10.1896L2.50632 14.924C3.02195 15.9552 4.33445 16.3771 5.3657 15.9084L7.52195 14.9709V24.8146C7.52195 26.0334 8.45945 26.9709 9.6782 26.9709H20.3188C21.5376 26.9709 22.5219 26.0334 22.5219 24.8146L22.4751 14.9709L24.5844 15.8615C25.6626 16.3771 26.9751 15.9552 27.4907 14.8771L29.7876 10.1896C30.0219 9.67398 30.0688 9.11148 29.8813 8.54898ZM28.4282 9.53336L26.1782 14.2209C25.9907 14.549 25.5688 14.6896 25.2407 14.5021L22.0532 13.1427C21.8188 13.049 21.5376 13.0959 21.3501 13.2365C21.1157 13.3771 20.9751 13.6115 20.9751 13.8459L21.0219 24.8146C21.0219 25.1896 20.6938 25.4709 20.3188 25.4709H9.6782C9.3032 25.4709 9.02195 25.1896 9.02195 24.8146V13.8459C9.02195 13.6115 8.88132 13.3771 8.64695 13.2365C8.5532 13.1427 8.41257 13.0959 8.27195 13.0959C8.13132 13.0959 8.03757 13.1427 7.94382 13.1427L4.75632 14.5021C4.4282 14.6896 4.00632 14.549 3.8657 14.2209L1.56882 9.53336C1.47507 9.34586 1.47507 9.20523 1.52195 9.01773C1.56882 8.87711 1.70945 8.73648 1.89695 8.64273L9.63132 4.65836C10.8032 5.87711 12.8188 6.58023 15.0219 6.58023C17.2251 6.58023 19.1938 5.87711 20.3657 4.65836L28.1001 8.64273C28.2876 8.73648 28.4282 8.87711 28.4751 9.01773C28.5219 9.20523 28.5219 9.34586 28.4282 9.53336Z" fill="#5C8EE6"/>
  </symbol>

  <symbol viewBox="0 0 30 30" fill="none" xmlns="http://www.w3.org/2000/svg" id="shosecare">
    <path d="M15.7969 15.75C14.1562 15.75 12.2344 16.4062 10.875 17.3906C9.75 18.1875 8.8125 18.9844 6 18.9844H3C1.3125 18.9844 0 20.4375 0 22.2188C0 23.9531 1.3125 25.5 3 25.5H6L8.67188 26.2031C10.1719 26.6719 11.7188 27 13.7344 27C18.8906 27 24 24.4219 24 20.5781C24 17.3906 20.0156 15.75 15.7969 15.75ZM5.25 24H3C2.20312 24 1.5 23.1562 1.5 22.2188C1.5 21.2344 2.15625 20.4844 3 20.4844H5.25V24ZM9.04688 24.75L6.75 24.1875V20.4375C9.32812 20.2969 10.5 19.5 11.5781 18.75C15.8438 15.7031 22.5 17.8594 22.5 20.5781C22.5 23.4844 16.7812 27.0469 9.04688 24.75ZM19.7344 3C17.6719 3 16.1719 3.375 14.6719 3.84375L12 4.5H9C7.3125 4.5 6 6.04688 6 7.82812C6 9.65625 7.3125 11.0625 9 11.0625H12C14.8125 11.0625 15.75 11.8594 16.875 12.6562C18.2344 13.5938 20.1562 14.25 21.7969 14.25C26.0156 14.25 30 12.6562 30 9.46875C30 5.625 24.9844 3 19.7344 3ZM11.25 9.5625H9C8.15625 9.5625 7.5 8.8125 7.5 7.82812C7.5 6.89062 8.20312 6 9 6H11.25V9.5625ZM21.7969 12.75C20.4844 12.75 18.8906 12.1875 17.7656 11.3906C16.6406 10.6406 15.4688 9.75 12.75 9.5625V5.85938L15.0938 5.25C16.5 4.875 17.8594 4.5 19.7344 4.5C22.1719 4.5 28.5 5.71875 28.5 9.46875C28.5 11.625 25.125 12.75 21.7969 12.75Z" fill="#5C8EE6"/>
  </symbol>

  <symbol viewBox="0 0 30 30" fill="none" xmlns="http://www.w3.org/2000/svg" id="building_materials">
    <path d="M24.5 4H6.5C5.65625 4 5 4.70312 5 5.5V8.5C5 9.34375 5.65625 10 6.5 10V24.25C6.5 24.625 6.73438 24.9531 7.10938 25C7.57812 25.0938 8 24.7188 8 24.25V22H18.5V24.25C18.5 24.6719 18.8281 25 19.2031 25C19.5781 25 20 24.6719 20 24.25V22H23V24.25C23 24.625 23.2344 24.9531 23.6094 25C24.0781 25.0938 24.5 24.7188 24.5 24.25V10C25.2969 10 26 9.34375 26 8.5V5.5C26 4.70312 25.2969 4 24.5 4ZM11 14.5H8V10H11V14.5ZM8 20.5V16H14V20.5H8ZM23 20.5H15.5V16H23V20.5ZM23 14.5H12.5V10H23V14.5ZM24.5 8.5H6.5V5.5H24.5V8.5Z" fill="#5C8EE6"/>
  </symbol>

  <symbol viewBox="0 0 30 30" fill="none" xmlns="http://www.w3.org/2000/svg" id="other_materials">
    <path d="M15 14C14.1562 14 13.5 14.7031 13.5 15.5C13.5 16.3438 14.1562 17 15 17C15.7969 17 16.5 16.3438 16.5 15.5C16.5 14.7031 15.7969 14 15 14ZM7.5 14C6.65625 14 6 14.7031 6 15.5C6 16.3438 6.65625 17 7.5 17C8.29688 17 9 16.3438 9 15.5C9 14.7031 8.29688 14 7.5 14ZM22.5 14C21.6562 14 21 14.7031 21 15.5C21 16.3438 21.6562 17 22.5 17C23.2969 17 24 16.3438 24 15.5C24 14.7031 23.2969 14 22.5 14Z" fill="#5C8EE6"/>
  </symbol>

<symbol viewBox="0 0 14 14" fill="none" xmlns="http://www.w3.org/2000/svg" id="tic-shield">
<path d="M11.9222 2.94626L7.42 1.07035C7.2793 1.02345 7.13861 1 6.99792 1C6.83377 1 6.69308 1.02345 6.55239 1.07035L2.05019 2.94626C1.62811 3.13385 1.37017 3.53249 1.37017 3.97802C1.37017 8.64436 4.04335 11.8569 6.55239 12.9121C6.83377 13.0293 7.13861 13.0293 7.42 12.9121C9.43661 12.0679 12.6257 9.18368 12.6257 3.97802C12.6257 3.53249 12.3443 3.13385 11.9222 2.94626ZM10.1617 5.72512L6.50549 9.14349C6.3648 9.30763 6.10686 9.30763 5.96616 9.14349L3.95625 7.37141C3.81556 7.23072 3.81556 6.99623 3.95625 6.85554L4.24099 6.5708C4.38168 6.43011 4.61617 6.43011 4.75687 6.5708L6.30267 7.91226L9.41619 4.97962C9.55689 4.83893 9.79138 4.83893 9.93207 4.97962L10.1617 5.20924C10.3024 5.34994 10.3024 5.58443 10.1617 5.72512Z" fill="#828A99"/>
</symbol>


</svg>